<?xml version="1.0" encoding="UTF-8"?>
<svg id="Layer_1" data-name="Layer 1" xmlns="http://www.w3.org/2000/svg" xmlns:xlink="http://www.w3.org/1999/xlink" viewBox="0 0 300 300">
  <defs>
    <style>
      .cls-1 {
        fill: url(#GradientFill_11-2);
      }

      .cls-1, .cls-2, .cls-3, .cls-4, .cls-5, .cls-6, .cls-7, .cls-8, .cls-9, .cls-10, .cls-11, .cls-12, .cls-13, .cls-14, .cls-15, .cls-16, .cls-17, .cls-18, .cls-19, .cls-20, .cls-21, .cls-22, .cls-23 {
        stroke-width: 0px;
      }

      .cls-1, .cls-2, .cls-3, .cls-4, .cls-5, .cls-6, .cls-8, .cls-9, .cls-10, .cls-11, .cls-12, .cls-13, .cls-14, .cls-15, .cls-16, .cls-17, .cls-18, .cls-19, .cls-20, .cls-21, .cls-23 {
        fill-rule: evenodd;
      }

      .cls-2 {
        fill: url(#GradientFill_9);
      }

      .cls-3 {
        fill: url(#GradientFill_3-2);
      }

      .cls-4 {
        fill: url(#GradientFill_12);
      }

      .cls-5 {
        fill: url(#GradientFill_3);
      }

      .cls-6 {
        fill: url(#GradientFill_2);
      }

      .cls-7 {
        fill: url(#GradientFill_5);
      }

      .cls-8 {
        fill: url(#GradientFill_9-2);
      }

      .cls-9 {
        fill: url(#GradientFill_8);
      }

      .cls-10 {
        fill: url(#GradientFill_10);
      }

      .cls-11 {
        fill: url(#GradientFill_4-2);
      }

      .cls-12 {
        fill: url(#GradientFill_10-2);
      }

      .cls-13 {
        fill: url(#GradientFill_11);
      }

      .cls-14 {
        fill: url(#GradientFill_2-2);
      }

      .cls-15 {
        fill: url(#GradientFill_14);
      }

      .cls-16 {
        fill: url(#GradientFill_9-3);
      }

      .cls-17 {
        fill: url(#GradientFill_8-2);
      }

      .cls-18 {
        fill: url(#GradientFill_8-3);
      }

      .cls-19 {
        fill: url(#GradientFill_13);
      }

      .cls-20 {
        fill: url(#GradientFill_7);
      }

      .cls-21 {
        fill: url(#GradientFill_15);
      }

      .cls-22 {
        fill: url(#GradientFill_6);
      }

      .cls-23 {
        fill: url(#GradientFill_4);
      }
    </style>
    <linearGradient id="GradientFill_2" data-name="GradientFill 2" x1="200.17" y1="265.35" x2="176.07" y2="213.66" gradientUnits="userSpaceOnUse">
      <stop offset="0" stop-color="#7c1315"/>
      <stop offset=".41" stop-color="#c51f25"/>
      <stop offset=".7" stop-color="#f05655"/>
      <stop offset="1" stop-color="#771113"/>
    </linearGradient>
    <linearGradient id="GradientFill_3" data-name="GradientFill 3" x1="192.69" y1="264.96" x2="173.9" y2="210.4" gradientUnits="userSpaceOnUse">
      <stop offset="0" stop-color="#dba73e"/>
      <stop offset=".16" stop-color="#d89d3a"/>
      <stop offset=".3" stop-color="#a46b28"/>
      <stop offset=".54" stop-color="#f4f3b8"/>
      <stop offset=".56" stop-color="#f7ed9a"/>
      <stop offset=".69" stop-color="#d5b767"/>
      <stop offset=".75" stop-color="#a76f29"/>
      <stop offset=".85" stop-color="#d0ab5b"/>
      <stop offset="1" stop-color="#e0c77d"/>
    </linearGradient>
    <linearGradient id="GradientFill_2-2" data-name="GradientFill 2" x1="99.73" y1="261.59" x2="122.27" y2="215.37" xlink:href="#GradientFill_2"/>
    <linearGradient id="GradientFill_3-2" data-name="GradientFill 3" x1="103.81" y1="257.64" x2="123.39" y2="213.66" xlink:href="#GradientFill_3"/>
    <linearGradient id="GradientFill_4" data-name="GradientFill 4" x1="243.29" y1="128.79" x2="56.34" y2="109.14" gradientUnits="userSpaceOnUse">
      <stop offset="0" stop-color="#d9a93b"/>
      <stop offset=".13" stop-color="#f4dd79"/>
      <stop offset=".34" stop-color="#bd8e2d"/>
      <stop offset=".52" stop-color="#995925"/>
      <stop offset=".7" stop-color="#efe59e"/>
      <stop offset=".86" stop-color="#fcf6b6"/>
      <stop offset="1" stop-color="#f6e7a1"/>
    </linearGradient>
    <linearGradient id="GradientFill_5" data-name="GradientFill 5" x1="104.76" y1="211.34" x2="191.79" y2="32.9" gradientTransform="translate(128 -71.09) rotate(45)" gradientUnits="userSpaceOnUse">
      <stop offset="0" stop-color="#d9a93b"/>
      <stop offset=".13" stop-color="#f4dd79"/>
      <stop offset=".35" stop-color="#dcbe5b"/>
      <stop offset=".45" stop-color="#bd8e2d"/>
      <stop offset=".52" stop-color="#995925"/>
      <stop offset=".59" stop-color="#efe59e"/>
      <stop offset=".73" stop-color="#fcf6b6"/>
      <stop offset="1" stop-color="#f6e7a1"/>
    </linearGradient>
    <linearGradient id="GradientFill_4-2" data-name="GradientFill 4" x1="69.47" y1="142" x2="230.18" y2="95.92" xlink:href="#GradientFill_4"/>
    <linearGradient id="GradientFill_6" data-name="GradientFill 6" x1="188.64" y1="80.13" x2="110.98" y2="157.79" gradientTransform="translate(22.61 -23.92) rotate(9.87)" gradientUnits="userSpaceOnUse">
      <stop offset="0" stop-color="#7c1315"/>
      <stop offset=".53" stop-color="#c51f25"/>
      <stop offset=".81" stop-color="#f05655"/>
      <stop offset="1" stop-color="#771113"/>
    </linearGradient>
    <linearGradient id="GradientFill_7" data-name="GradientFill 7" x1="157.36" y1="167.65" x2="114.06" y2="95.59" gradientUnits="userSpaceOnUse">
      <stop offset="0" stop-color="#d2ab67"/>
      <stop offset=".2" stop-color="#bd7729"/>
      <stop offset=".59" stop-color="#ffe986"/>
      <stop offset=".89" stop-color="#c48127"/>
      <stop offset="1" stop-color="#fde981"/>
    </linearGradient>
    <linearGradient id="GradientFill_8" data-name="GradientFill 8" x1="169.38" y1="80.47" x2="163.25" y2="53.92" gradientUnits="userSpaceOnUse">
      <stop offset="0" stop-color="#dec27a"/>
      <stop offset=".2" stop-color="#d0a04f"/>
      <stop offset=".59" stop-color="#fcea8f"/>
      <stop offset=".89" stop-color="#d7a84f"/>
      <stop offset="1" stop-color="#fcea8b"/>
    </linearGradient>
    <linearGradient id="GradientFill_9" data-name="GradientFill 9" x1="155.26" y1="67.05" x2="150.1" y2="87.75" gradientUnits="userSpaceOnUse">
      <stop offset="0" stop-color="#8a6026"/>
      <stop offset="1" stop-color="#fff1ab"/>
    </linearGradient>
    <linearGradient id="GradientFill_10" data-name="GradientFill 10" x1="150.24" y1="90.9" x2="162.85" y2="79.94" gradientUnits="userSpaceOnUse">
      <stop offset="0" stop-color="#7d4d1f"/>
      <stop offset="1" stop-color="#e0b745"/>
    </linearGradient>
    <linearGradient id="GradientFill_10-2" data-name="GradientFill 10" x1="170.44" y1="87.09" x2="172.51" y2="83.79" xlink:href="#GradientFill_10"/>
    <linearGradient id="GradientFill_9-2" data-name="GradientFill 9" x1="173.3" y1="67.57" x2="177.49" y2="87.24" xlink:href="#GradientFill_9"/>
    <linearGradient id="GradientFill_11" data-name="GradientFill 11" x1="176.66" y1="71.54" x2="198.22" y2="49.98" gradientUnits="userSpaceOnUse">
      <stop offset="0" stop-color="#5a3511"/>
      <stop offset="1" stop-color="#e0b745"/>
    </linearGradient>
    <linearGradient id="GradientFill_12" data-name="GradientFill 12" x1="170.65" y1="60.32" x2="185.23" y2="62.64" gradientUnits="userSpaceOnUse">
      <stop offset="0" stop-color="#f8d367"/>
      <stop offset="1" stop-color="#fff1ab"/>
    </linearGradient>
    <linearGradient id="GradientFill_11-2" data-name="GradientFill 11" x1="152.99" y1="72.64" x2="138.44" y2="59.53" xlink:href="#GradientFill_11"/>
    <linearGradient id="GradientFill_13" data-name="GradientFill 13" x1="143.29" y1="62.12" x2="158.53" y2="60.78" gradientUnits="userSpaceOnUse">
      <stop offset="0" stop-color="#583512"/>
      <stop offset="1" stop-color="#e0b745"/>
    </linearGradient>
    <linearGradient id="GradientFill_9-3" data-name="GradientFill 9" x1="158.32" y1="58.38" x2="168.86" y2="36.78" xlink:href="#GradientFill_9"/>
    <linearGradient id="GradientFill_14" data-name="GradientFill 14" x1="176.33" y1="74.84" x2="166.47" y2="51.61" gradientUnits="userSpaceOnUse">
      <stop offset="0" stop-color="#7d4d1f"/>
      <stop offset="1" stop-color="#fff1ab"/>
    </linearGradient>
    <linearGradient id="GradientFill_15" data-name="GradientFill 15" x1="184.88" y1="64.24" x2="143.31" y2="73.84" gradientUnits="userSpaceOnUse">
      <stop offset="0" stop-color="#482a0f"/>
      <stop offset=".1" stop-color="#a77129"/>
      <stop offset=".15" stop-color="#fff"/>
      <stop offset=".4" stop-color="#8e5923"/>
      <stop offset=".5" stop-color="#d8a64d"/>
      <stop offset=".59" stop-color="#f5e380"/>
      <stop offset=".77" stop-color="#fff"/>
      <stop offset=".88" stop-color="#a0752b"/>
      <stop offset="1" stop-color="#664219"/>
    </linearGradient>
    <linearGradient id="GradientFill_8-2" data-name="GradientFill 8" x1="145.86" y1="159.31" x2="142.44" y2="144.52" xlink:href="#GradientFill_8"/>
    <linearGradient id="GradientFill_8-3" data-name="GradientFill 8" x1="153.25" y1="133.76" x2="145.28" y2="99.26" xlink:href="#GradientFill_8"/>
  </defs>
  <g>
    <polygon class="cls-6" points="116.43 154.81 176.29 130.18 228.43 256.92 191.94 253.32 168.57 281.55 116.43 154.81"/>
    <path class="cls-5" d="m122.75,152.2l50.76,123.37-1.02,1.23-51.05-124.07,1.3-.53h0Zm47.21-19.42h0l50.76,123.38,1.58.16-51.05-124.07-1.3.53Z"/>
  </g>
  <g>
    <polygon class="cls-14" points="182.91 154.81 123.05 130.18 70.9 256.92 107.4 253.32 130.76 281.55 182.91 154.81"/>
    <path class="cls-3" d="m176.58,152.2l-50.76,123.37,1.02,1.23,51.05-124.07-1.3-.53h0Zm-47.21-19.42h0l-50.76,123.38-1.58.16,51.05-124.07,1.3.53Z"/>
  </g>
  <g>
    <path class="cls-23" d="m55.35,109.29c2.67-26.08,15.66-48.62,34.51-63.96,18.85-15.34,43.54-23.5,69.63-20.83,26.08,2.67,48.62,15.66,63.96,34.51,15.34,18.85,23.5,43.54,20.83,69.63-2.67,26.08-15.66,48.62-34.51,63.96-18.85,15.34-43.54,23.5-69.63,20.83-26.08-2.67-48.62-15.66-63.96-34.51-15.34-18.84-23.5-43.54-20.83-69.63h0Zm36.26-61.81h0c-18.3,14.9-30.91,36.77-33.5,62.1-2.59,25.32,5.32,49.3,20.22,67.6,14.9,18.3,36.77,30.91,62.1,33.5,25.32,2.59,49.3-5.32,67.6-20.22,18.3-14.9,30.91-36.77,33.5-62.1,2.59-25.32-5.32-49.3-20.22-67.6-14.9-18.3-36.77-30.91-62.1-33.5-25.32-2.59-49.3,5.32-67.6,20.22Z"/>
    <circle class="cls-7" cx="149.81" cy="118.96" r="93.4" transform="translate(-40.24 140.78) rotate(-45)"/>
    <path class="cls-11" d="m229.25,94.86c6.66,21.93,3.79,44.49-6.22,63.23-10.01,18.74-27.17,33.65-49.11,40.31-21.93,6.66-44.49,3.79-63.23-6.22-18.74-10.01-33.65-27.17-40.31-49.11-6.66-21.93-3.79-44.49,6.22-63.23,10.01-18.74,27.17-33.65,49.11-40.31,21.93-6.66,44.49-3.79,63.23,6.22,18.74,10.01,33.65,27.17,40.31,49.11h0Zm-8.35,62.09h0c9.72-18.19,12.5-40.09,6.04-61.39-6.46-21.3-20.95-37.96-39.14-47.68-18.19-9.72-40.09-12.5-61.39-6.04-21.3,6.46-37.96,20.95-47.68,39.14-9.72,18.19-12.5,40.09-6.04,61.39,6.46,21.3,20.95,37.96,39.14,47.68,18.19,9.72,40.09,12.5,61.39,6.04,21.3-6.46,37.96-20.95,47.68-39.14Z"/>
  </g>
  <circle class="cls-22" cx="149.81" cy="118.96" r="80.9" transform="translate(-18.17 27.44) rotate(-9.87)"/>
  <path class="cls-20" d="m93.35,160.54l1.49-2.34-1.33-2.38,2.69.7,1.86-2,.17,2.77,2.47,1.15-2.58,1.02-.33,2.71-1.77-2.14-2.67.53h0Zm5.33,6.87h0l2.58-.88,2.04,1.89-.04-2.72,2.42-1.35-2.6-.81-.54-2.72-1.57,2.23-2.76-.33,1.63,2.18-1.17,2.52h0Zm12.88,11.14h0l.48-2.73-2.14-1.69,2.75-.39.94-2.56,1.22,2.49,2.72.11-1.99,1.93.74,2.62-2.45-1.3-2.27,1.51h0Zm15.33,7.43h0l-.25-2.76-2.51-1.07,2.55-1.09.25-2.72,1.83,2.09,2.66-.6-1.42,2.38,1.4,2.34-2.71-.62-1.8,2.05h0Zm16.73,3.21h0l-.95-2.61-2.7-.39,2.18-1.71-.46-2.69,2.31,1.55,2.41-1.27-.76,2.67,1.95,1.9-2.77.1-1.2,2.44h0Zm16.99-1.23h0l-1.6-2.27-2.71.32,1.66-2.22-1.14-2.48,2.63.9,2-1.85-.04,2.77,2.38,1.33-2.65.82-.53,2.67h0Zm16.09-5.59h0l-2.13-1.78-2.53,1.01,1.03-2.57-1.74-2.1,2.77.19,1.45-2.31.68,2.69,2.64.67-2.35,1.48.18,2.72h0Zm14.1-9.56h0l-2.52-1.17-2.18,1.63.33-2.76-2.23-1.57,2.72-.54.81-2.6,1.35,2.42,2.72-.04-1.89,2.04.88,2.58h0Zm11.14-12.88h0l-2.73-.48-1.69,2.14-.39-2.75-2.56-.94,2.49-1.23.11-2.72,1.93,1.99,2.62-.74-1.3,2.45,1.51,2.27h0Zm-83.77-94.21h0l2.13,1.78,2.53-1.01-1.03,2.58,1.74,2.09-2.77-.19-1.45,2.31-.68-2.69-2.64-.67,2.35-1.48-.18-2.72h0Zm-14.1,9.56h0l2.52,1.17,2.19-1.63-.33,2.76,2.23,1.57-2.72.54-.81,2.6-1.35-2.42-2.72.04,1.89-2.03-.88-2.58h0Zm-11.14,12.89h0l2.73.47,1.69-2.14.39,2.75,2.56.94-2.49,1.22-.11,2.72-1.93-1.99-2.62.74,1.3-2.45-1.52-2.27h0Zm-7.43,15.33h0l2.76-.25,1.08-2.51,1.09,2.55,2.71.25-2.09,1.83.6,2.66-2.38-1.42-2.34,1.4.62-2.71-2.05-1.8h0Zm-3.21,16.73h0l2.61-.95.39-2.7,1.71,2.18,2.69-.46-1.55,2.31,1.27,2.41-2.67-.76-1.9,1.95-.1-2.77-2.44-1.2h0Zm1.23,16.99h0l2.27-1.6-.32-2.71,2.22,1.67,2.47-1.14-.9,2.63,1.85,2-2.77-.04-1.33,2.38-.82-2.65-2.67-.53h0Zm5.59,16.09h0l2.72-.18,1.48,2.35.67-2.64,2.69-.68-2.31-1.45.19-2.77-2.09,1.74-2.58-1.03,1.01,2.53-1.78,2.13h0Zm15.52,19.98h0l.84-2.64-1.9-1.96,2.77-.02,1.28-2.41.88,2.63,2.68.47-2.23,1.65.39,2.7-2.26-1.61-2.45,1.2h0Zm14.21,9.4h0l2.05-1.79,2.6.97-1.07-2.51,1.73-2.17-2.71.24-1.53-2.32-.61,2.66-2.67.74,2.34,1.4-.12,2.77h0Zm16.16,5.41h0l1.52-2.26,2.76.27-1.68-2.14,1.11-2.55-2.56.94-2.08-1.84.1,2.73-2.39,1.41,2.62.75.6,2.71h0Zm17,1.04h0l.88-2.58,2.74-.46-2.18-1.63.41-2.75-2.23,1.57-2.49-1.24.8,2.61-1.95,1.98,2.73.04,1.28,2.46h0Zm16.69-3.4h0l.19-2.72,2.53-1.15-2.53-1.02-.31-2.76-1.75,2.09-2.72-.55,1.45,2.31-1.37,2.41,2.64-.67,1.87,2.05h0Zm15.25-7.6h0l-.52-2.67,2.14-1.77-2.7-.33-1.02-2.58-1.15,2.47-2.77.17,2,1.86-.7,2.68,2.38-1.33,2.34,1.49h0Zm12.76-11.29h0l-1.2-2.45,1.61-2.26-2.7.39-1.65-2.23-.47,2.68-2.63.88,2.41,1.28.02,2.78,1.96-1.9,2.65.84h0Zm9.4-14.21h0l-1.79-2.05.97-2.6-2.5,1.07-2.17-1.73.24,2.71-2.32,1.53,2.66.61.74,2.67,1.4-2.34,2.77.12h0Zm-95.15-82.71h0l.53,2.67-2.14,1.76,2.71.33,1.02,2.58,1.15-2.47,2.77-.17-2-1.86.7-2.69-2.38,1.33-2.34-1.49h0Zm-12.76,11.29h0l1.2,2.45-1.61,2.26,2.7-.39,1.65,2.23.47-2.68,2.63-.88-2.41-1.27-.02-2.78-1.96,1.9-2.65-.83h0Zm-9.4,14.21h0l1.79,2.05-.97,2.6,2.51-1.07,2.17,1.73-.24-2.71,2.32-1.53-2.66-.61-.74-2.67-1.4,2.34-2.77-.12h0Zm-5.41,16.16h0l2.26,1.52-.27,2.76,2.14-1.68,2.55,1.11-.94-2.56,1.84-2.08-2.72.1-1.41-2.39-.74,2.62-2.71.6h0Zm-1.04,17h0l2.58.88.46,2.74,1.63-2.18,2.75.41-1.57-2.23,1.24-2.48-2.61.8-1.98-1.95-.04,2.73-2.46,1.28h0Zm3.4,16.69h0l2.05-1.87-.66-2.64,2.42,1.37,2.31-1.45-.55,2.72,2.09,1.75-2.76.31-1.01,2.53-1.15-2.53-2.72-.19Z"/>
  <g>
    <g>
      <path class="cls-9" d="m170.44,61.88l13.02,1.47,2.71-.87h0s-2.7.87-2.7.87h0s-9.73,8.9-9.73,8.9l-.49.45,1.29.41h0s-1.28-.41-1.28-.41h0s.13.65.13.65l2.64,12.92h0s-5.58-3.17-5.58-3.17v-21.22h0Zm0-1.08h0s.06-.09.06-.09h0s-.07.09-.07.09h0Zm-6.46-14.44h0v2.84s-5.45,12-5.45,12l-.27.6h0s0,0,0,0l-.66.08-13.1,1.48h0s9.73,8.9,9.73,8.9l.49.45h0s-.2.06-.2.06l.2-.06-.13.65-2.64,12.92h0s11.47-6.51,11.47-6.51l.58-.33h0s.58.33.58.33l5.89,3.34v-21.22h-.07s-.66-.08-.66-.08v-.02s-.28-.59-.28-.59l-5.44-11.98v-2.84s0-.01,0-.01h0Zm6.46,14.44h0l-.07.09.07-.09h0Z"/>
      <polygon class="cls-2" points="148.64 90.82 148.6 90.85 149.12 88.32 152.15 73.52 152.15 73.52 154.71 72.69 154.58 73.34 151.93 86.26 151.98 86.24 148.64 90.82"/>
      <polygon class="cls-10" points="163.98 82.12 150.84 89.57 148.6 90.85 148.6 90.85 151.93 86.26 151.93 86.26 163.4 79.75 163.98 79.43 163.98 82.12"/>
      <polygon class="cls-12" points="179.36 90.84 177.12 89.57 163.98 82.12 163.98 82.12 163.98 79.43 163.98 79.43 164.56 79.75 176.03 86.26 176.03 86.26 179.36 90.84"/>
      <polygon class="cls-8" points="175.82 73.51 175.81 73.52 178.84 88.32 179.36 90.85 179.36 90.84 176.03 86.26 176.03 86.26 173.38 73.34 173.25 72.69 173.25 72.69 175.82 73.51"/>
      <polygon class="cls-13" points="188.84 61.61 186.96 63.33 175.82 73.51 173.25 72.69 173.74 72.24 183.48 63.35 183.47 63.35 188.84 61.61"/>
      <polygon class="cls-4" points="171.32 59.61 186.3 61.3 188.86 61.59 188.85 61.61 183.46 63.34 170.37 61.87 169.71 61.79 169.7 61.78 171.32 59.61"/>
      <polygon class="cls-1" points="152.15 73.52 141 63.33 139.11 61.6 144.5 63.34 144.48 63.35 154.22 72.24 154.71 72.69 154.71 72.69 152.15 73.52"/>
      <polygon class="cls-19" points="139.12 61.61 139.1 61.59 141.66 61.3 156.66 59.61 158.26 61.79 158.25 61.79 157.59 61.87 144.49 63.35 139.12 61.61"/>
      <polygon class="cls-16" points="156.66 59.61 156.67 59.61 162.91 45.87 163.98 43.51 163.98 43.52 163.98 49.19 158.53 61.19 158.25 61.79 156.66 59.61"/>
      <polygon class="cls-15" points="165.05 45.87 171.32 59.61 169.71 61.79 169.71 61.79 169.43 61.19 163.99 49.2 163.98 43.52 165.05 45.87"/>
    </g>
    <path class="cls-21" d="m164.07,49.17l5.72,12.47,13.63,1.58.22.03-.16.15-10.1,9.29,2.71,13.45.04.22-.19-.11-11.96-6.73-11.96,6.73-.19.11.04-.22,2.71-13.45-10.1-9.29-.16-.15.22-.03,13.63-1.58,5.72-12.47.09-.2.09.2h0Zm5.56,12.61h0l-5.65-12.32-5.65,12.32-.02.05h-.06s-13.47,1.57-13.47,1.57l9.98,9.18.04.04v.06s-2.69,13.29-2.69,13.29l11.81-6.65.05-.03.05.03,11.81,6.65-2.68-13.29v-.06s.03-.04.03-.04l9.98-9.18-13.47-1.56h-.06s-.02-.06-.02-.06Z"/>
  </g>
  <path class="cls-17" d="m105.13,146.99h1.94l1.51,5.89h.03v-5.89h1.38v9.85h-1.59l-1.86-7.19h-.03v7.19h-1.38v-9.85h0Zm73.83,0h4.22v1.41h-2.67v2.6h2.12v1.41h-2.12v3.02h2.67v1.41h-4.22v-9.85h0Zm-7.57,0h2.21l.98,7.05h.03l.98-7.05h2.21v9.85h-1.46v-7.46h-.03l-1.13,7.46h-1.29l-1.13-7.46h-.03v7.46h-1.35v-9.85h0Zm-4.45,0h2.1l1.6,9.85h-1.55l-.28-1.96v.03h-1.76l-.28,1.93h-1.43l1.6-9.85h0Zm1.69,6.58h0l-.69-4.87h-.03l-.68,4.87h1.39Zm-8.89-6.58h1.94l1.51,5.89h.03v-5.89h1.38v9.85h-1.59l-1.86-7.19h-.03v7.19h-1.38v-9.85h0Zm-8.26,0h1.94l1.51,5.89h.03v-5.89h1.38v9.85h-1.59l-1.86-7.19h-.03v7.19h-1.38v-9.85h0Zm-3.39,9.99h0c-.76,0-1.34-.22-1.74-.65-.4-.43-.6-1.04-.6-1.83v-5.18c0-.79.2-1.4.6-1.83.4-.43.98-.65,1.74-.65s1.34.22,1.74.65c.4.43.61,1.04.61,1.83v5.18c0,.79-.2,1.4-.61,1.83-.4.43-.98.65-1.74.65h0Zm0-1.41h0c.53,0,.8-.32.8-.97v-5.37c0-.65-.27-.97-.8-.97s-.8.32-.8.97v5.37c0,.65.27.97.8.97h0Zm-4.94-8.58h1.55v9.85h-1.55v-9.85h0Zm-3.91,1.41h-1.62v-1.41h4.78v1.41h-1.62v8.44h-1.55v-8.44h0Zm-5.01-1.41h0l-1.6,9.85h1.43l.28-1.93h1.76v-.03l.28,1.96h1.55l-1.6-9.85h-2.1Zm1.69,6.58h-1.39l.68-4.87h.03l.69,4.87h0Zm-8.89-6.58h1.94l1.51,5.89h.03v-5.89h1.38v9.85h-1.59l-1.86-7.19h-.03v7.19h-1.38v-9.85h0Zm-2.7,0h1.55v9.85h-1.55v-9.85h0Zm-7.57,0h2.21l.98,7.05h.03l.98-7.05h2.21v9.85h-1.46v-7.46h-.03l-1.13,7.46h-1.29l-1.13-7.46h-.03v7.46h-1.35v-9.85h0Zm-3.39,9.99h0c-.76,0-1.34-.22-1.74-.65-.4-.43-.61-1.04-.61-1.83v-5.18c0-.79.2-1.4.61-1.83.4-.43.98-.65,1.74-.65s1.34.22,1.74.65c.4.43.6,1.04.6,1.83v5.18c0,.79-.2,1.4-.6,1.83-.4.43-.98.65-1.74.65h0Zm0-1.41h0c.53,0,.8-.32.8-.97v-5.37c0-.65-.27-.97-.8-.97s-.8.32-.8.97v5.37c0,.65.27.97.8.97Z"/>
  <path class="cls-18" d="m115.34,107.28c.12,0,.19.05.24.17l1.91,5.06c.12.29-.05.5-.21.55-.24.02-.33.07-.33.21,0,.17.29.17.72.19,1.91.05,3.65.05,4.51.05s1.1-.05,1.1-.24c0-.17-.12-.19-.31-.19-.29,0-.64-.02-1-.1-.5-.14-1.19-.47-2.1-2.61-1.53-3.61-5.34-13.34-5.91-14.65-.24-.55-.38-.76-.6-.76-.24,0-.38.26-.67.95l-5.99,14.98c-.48,1.19-.93,2-2.03,2.15-.19.02-.52.05-.74.05-.19,0-.29.05-.29.19,0,.19.14.24.45.24,1.24,0,2.55-.07,2.81-.07.74,0,1.76.07,2.53.07.26,0,.41-.05.41-.24,0-.14-.07-.19-.36-.19h-.36c-.74,0-.95-.31-.95-.74,0-.29.12-.86.36-1.45l1.29-3.41c.05-.14.1-.19.22-.19h5.32Zm74.98,22.36h0c0,2.19,0,4.08-.12,5.08-.1.69-.21,1.22-.69,1.31-.21.05-.5.09-.86.09-.29,0-.38.07-.38.19,0,.17.17.24.48.24.95,0,2.46-.07,2.91-.07.36,0,2.12.07,3.51.07.31,0,.48-.07.48-.24,0-.12-.1-.19-.29-.19-.29,0-.81-.05-1.17-.09-.72-.1-.86-.62-.93-1.31-.12-1-.12-2.89-.12-5.1v-.33c0-.14.07-.19.19-.19l2.07.05c.17,0,.31.02.43.17.31.36,1.41,1.98,2.36,3.29,1.34,1.84,2.24,2.96,3.27,3.51.62.33,1.22.45,2.55.45h2.27c.29,0,.45-.05.45-.24,0-.12-.1-.19-.29-.19s-.41-.02-.67-.07c-.36-.07-1.34-.24-2.67-1.62-1.41-1.48-3.05-3.6-5.17-6.27,2.41-1.96,3.15-3.58,3.15-5.34,0-1.6-.95-2.81-1.62-3.27-1.29-.88-2.89-1.03-4.39-1.03-.74,0-2.55.07-3.36.07-.5,0-2-.07-3.27-.07-.36,0-.52.05-.52.21s.14.21.41.21c.33,0,.74.02.93.07.79.17.98.55,1.03,1.36.05.76.05,1.43.05,5.06v4.2h0Zm2.81-9.56h0c0-.19.05-.29.21-.33.24-.07.67-.1,1.26-.1,1.41,0,3.65.98,3.65,4.36,0,1.96-.69,3.05-1.41,3.58-.43.31-.74.41-1.69.41-.6,0-1.31-.07-1.81-.24-.17-.07-.21-.17-.21-.43v-7.25h0Zm-16.32,9.56h0c0,2.19,0,4.08-.12,5.08-.1.69-.21,1.22-.69,1.31-.21.05-.5.09-.86.09-.29,0-.38.07-.38.19,0,.17.17.24.48.24.48,0,1.1-.05,1.65-.05.57-.02,1.1-.02,1.36-.02.72,0,1.46.02,2.48.07,1.03.02,2.34.07,4.13.07.91,0,1.12,0,1.29-.62.12-.48.31-2.1.31-2.65,0-.24,0-.43-.19-.43-.17,0-.21.1-.26.36-.17.98-.45,1.48-1.07,1.76-.62.29-1.62.29-2.24.29-2.43,0-2.81-.36-2.86-2-.02-.69,0-2.89,0-3.7v-1.88c0-.14.02-.24.14-.24.57,0,2.93.02,3.39.07.88.1,1.22.45,1.34.93.07.31.07.62.1.86,0,.12.05.21.21.21.21,0,.21-.26.21-.45,0-.17.07-1.12.1-1.6.1-1.22.19-1.6.19-1.74s-.07-.19-.17-.19c-.12,0-.21.12-.38.31-.21.24-.57.31-1.14.36-.55.05-3.29.05-3.82.05-.14,0-.17-.1-.17-.26v-6.03c0-.17.05-.24.17-.24.48,0,2.98.05,3.39.1,1.19.14,1.43.43,1.6.86.12.29.14.69.14.86,0,.21.05.33.21.33s.21-.14.24-.26c.05-.29.1-1.34.12-1.57.07-1.1.19-1.38.19-1.55,0-.12-.02-.22-.14-.22s-.26.07-.38.1c-.19.05-.57.1-1.03.14-.45.02-5.2.02-5.96.02-.33,0-.88-.02-1.5-.05-.6,0-1.29-.02-1.93-.02-.36,0-.52.05-.52.21s.14.21.41.21c.33,0,.74.02.93.07.79.17.98.55,1.03,1.36.05.76.05,1.43.05,5.06v4.2h0Zm-19.94-6.34h.07c.43.45,3.08,3.43,5.67,6.01,2.48,2.46,5.53,5.58,7.03,7.01.26.26.55.52.81.52.21,0,.31-.21.31-.74l.26-15.05c.02-1.34.21-1.84.88-2.03.29-.07.48-.07.72-.07.29,0,.43-.07.43-.21,0-.19-.24-.21-.55-.21-1.17,0-2.08.07-2.34.07-.5,0-1.65-.07-2.88-.07-.36,0-.62.02-.62.21,0,.14.1.21.38.21.33,0,.91,0,1.26.14.57.24.79.69.81,2.15l.24,10.71h-.12c-.41-.38-3.62-3.82-5.24-5.44-3.48-3.46-7.1-7.35-7.39-7.66-.41-.43-.62-.74-.89-.74-.24,0-.31.33-.31.81l-.21,14.12c-.02,2.07-.12,2.77-.74,2.96-.33.1-.76.12-1.07.12-.24,0-.38.05-.38.19,0,.22.22.24.52.24,1.24,0,2.36-.07,2.58-.07.46,0,1.41.07,2.96.07.33,0,.55-.05.55-.24,0-.14-.14-.19-.41-.19-.38,0-.83-.02-1.24-.17-.48-.17-.79-.79-.83-2.65l-.26-10.02h0Zm-21.02,0h.07c.43.45,3.08,3.43,5.67,6.01,2.48,2.46,5.53,5.58,7.03,7.01.26.26.55.52.81.52.21,0,.31-.21.31-.74l.26-15.05c.02-1.34.21-1.84.88-2.03.29-.07.48-.07.72-.07.29,0,.43-.07.43-.21,0-.19-.24-.21-.55-.21-1.17,0-2.07.07-2.34.07-.5,0-1.65-.07-2.88-.07-.36,0-.62.02-.62.21,0,.14.1.21.38.21.33,0,.91,0,1.26.14.57.24.79.69.81,2.15l.24,10.71h-.12c-.41-.38-3.62-3.82-5.24-5.44-3.48-3.46-7.1-7.35-7.39-7.66-.41-.43-.62-.74-.89-.74-.24,0-.31.33-.31.81l-.22,14.12c-.02,2.07-.12,2.77-.74,2.96-.33.1-.76.12-1.07.12-.24,0-.38.05-.38.19,0,.22.21.24.52.24,1.24,0,2.36-.07,2.58-.07.46,0,1.41.07,2.96.07.33,0,.55-.05.55-.24,0-.14-.14-.19-.41-.19-.38,0-.83-.02-1.24-.17-.48-.17-.79-.79-.83-2.65l-.26-10.02h0Zm-10.3,6.34h0c0,2.31,0,4.2-.12,5.2-.07.69-.21,1.1-.69,1.19-.21.05-.5.09-.86.09-.29,0-.38.07-.38.19,0,.17.17.24.48.24.95,0,2.46-.07,3.01-.07.64,0,2.15.07,3.72.07.26,0,.45-.07.45-.24,0-.12-.12-.19-.38-.19-.36,0-.88-.05-1.22-.09-.71-.1-.88-.52-.95-1.17-.1-1.03-.1-2.91-.1-5.22v-4.2c0-3.62,0-4.29.05-5.06.05-.83.24-1.24.88-1.36.29-.05.48-.07.72-.07s.38-.05.38-.24c0-.14-.19-.19-.5-.19-.91,0-2.31.07-2.91.07-.69,0-2.19-.07-3.1-.07-.12,0-.22,0-.3.01-.06-.01-.13-.01-.21-.01-.79,0-1.81.07-1.98.07-.21,0-1.22-.07-2.48-.07-.36,0-.55.05-.55.21,0,.14.17.21.41.21.93,0,1.14.33,1.14.72,0,.33-.07.83-.24,1.38-.83,2.79-2.74,9.09-3.17,10.68h-.07l-4.96-12.02c-.31-.77-.43-1.12-.69-1.12-.19,0-.36.19-.6.86l-4.63,12.44h-.07c-.43-1.34-2.65-8.57-3.05-10.15-.29-1.05-.52-1.86-.52-2.17,0-.26.05-.43.26-.52.17-.1.41-.1.6-.1.24,0,.43-.02.43-.21,0-.14-.17-.21-.5-.21-1.38,0-2.43.07-2.65.07s-1.53-.07-2.77-.07c-.33,0-.52.05-.52.21,0,.19.14.21.38.21.21,0,.69.05.95.21.33.24.6.81.88,1.69l5.06,15.14c.21.62.31.88.55.88.29,0,.41-.29.86-1.26,1.03-2.19,4.2-10.64,4.65-11.85h.05l4.96,11.95c.36.88.5,1.17.74,1.17.31,0,.43-.29.69-1.12,1.17-3.58,3.67-11.16,4.77-14.17.5-1.36.76-2.31,1.34-2.53.26-.1.6-.12.83-.12.04,0,.07,0,.1,0,.04,0,.08,0,.13,0,.29,0,.6.02.86.1.52.12.76.52.81,1.34.05.76.05,1.43.05,5.06v4.2h0Zm52.63-23.06h0c0,2.19,0,4.08-.12,5.08-.1.69-.21,1.22-.69,1.31-.05.01-.09.02-.15.03h-.03c-.36-.08-1.34-.24-2.67-1.63-1.41-1.48-3.05-3.6-5.17-6.27,2.41-1.96,3.15-3.58,3.15-5.34,0-1.6-.95-2.81-1.62-3.27-1.29-.88-2.89-1.03-4.39-1.03-.74,0-2.55.07-3.36.07-.5,0-2-.07-3.27-.07-.36,0-.52.05-.52.21s.14.21.41.21c.33,0,.74.02.93.07.79.17.98.55,1.03,1.36.05.76.05,1.43.05,5.06v4.2c0,2.19,0,4.08-.12,5.08-.1.69-.21,1.22-.69,1.31-.17.04-.4.08-.66.09-.24,0-.51-.04-.78-.09-.5-.14-1.19-.47-2.1-2.61-1.53-3.61-5.34-13.34-5.91-14.65-.24-.55-.38-.76-.6-.76-.24,0-.38.26-.67.95l-5.99,14.98c-.48,1.19-.93,2-2.03,2.15-.19.02-.53.05-.74.05-.19,0-.29.05-.29.19,0,.19.14.24.45.24,1.24,0,2.55-.07,2.81-.07.74,0,1.76.07,2.53.07.26,0,.41-.05.41-.24,0-.14-.07-.19-.36-.19h-.36c-.74,0-.95-.31-.95-.74,0-.29.12-.86.36-1.45l1.29-3.41c.05-.14.1-.19.21-.19h5.32c.12,0,.19.05.24.17l1.91,5.06c.12.29-.05.5-.21.55-.24.02-.33.07-.33.21,0,.17.29.17.72.19,1.91.05,3.65.05,4.51.05.13,0,.25,0,.35,0,.03,0,.07,0,.11,0,.95,0,2.46-.07,2.91-.07.36,0,2.12.07,3.51.07.31,0,.48-.07.48-.24,0-.12-.1-.19-.29-.19-.29,0-.81-.05-1.17-.1-.72-.1-.86-.62-.93-1.31-.12-1-.12-2.89-.12-5.1v-.33c0-.14.07-.19.19-.19l2.07.05c.17,0,.31.02.43.17.31.36,1.41,1.98,2.36,3.29,1.34,1.84,2.24,2.96,3.27,3.51.62.33,1.22.45,2.55.45h2.27c.14,0,.25-.01.33-.05.08,0,.16,0,.23,0,.57-.02,1.1-.02,1.36-.02.6,0,1.43.07,2.34.14.91.07,1.88.14,2.74.14,4.41,0,6.89-1.69,7.99-2.81,1.34-1.36,2.6-3.65,2.6-6.65,0-2.84-1.12-4.82-2.31-6.06-2.6-2.72-6.58-2.72-9.56-2.72-1.43,0-2.93.07-3.67.07-.67,0-2.17-.07-3.43-.07-.36,0-.53.05-.53.21s.14.21.41.21c.33,0,.74.02.93.07.79.17.98.55,1.03,1.36.05.76.05,1.43.05,5.06v4.2h0Zm2.98-4.58h0c0-1.88,0-3.96.02-4.77,0-.26.07-.38.29-.48.19-.1,1.07-.17,1.55-.17,1.86,0,4.58.29,6.77,2.38,1.03.98,2.29,2.93,2.29,5.96,0,2.46-.48,4.63-2,5.94-1.43,1.24-3.05,1.72-5.49,1.72-1.88,0-2.81-.5-3.12-.95-.19-.26-.24-1.22-.26-1.81-.02-.45-.05-2.29-.05-4.82v-3h0Zm-16.61-4.98h0c0-.19.05-.29.21-.33.24-.07.67-.1,1.26-.1,1.41,0,3.65.98,3.65,4.36,0,1.96-.69,3.05-1.41,3.58-.43.31-.74.41-1.69.41-.6,0-1.31-.07-1.81-.24-.17-.07-.21-.17-.21-.43v-7.25h0Zm-16.51,9.06h0c-.09,0-.12-.07-.09-.17l2.19-5.87c.02-.1.07-.21.14-.21s.1.12.12.21l2.15,5.89c.02.07,0,.14-.12.14h-4.39Zm-21.98,6.87h0l-5.06-15.14c-.29-.88-.55-1.45-.88-1.69-.26-.17-.74-.21-.95-.21-.24,0-.38-.02-.38-.21,0-.17.19-.21.53-.21,1.24,0,2.55.07,2.77.07s1.26-.07,2.65-.07c.33,0,.5.07.5.21,0,.19-.19.21-.43.21-.19,0-.43,0-.6.1-.21.1-.26.26-.26.52,0,.31.24,1.12.52,2.17.41,1.58,2.62,8.81,3.05,10.15h.07l4.63-12.44c.24-.67.41-.86.6-.86.26,0,.38.36.69,1.12l4.96,12.02h.07c.43-1.6,2.34-7.89,3.17-10.68.17-.55.24-1.05.24-1.38,0-.38-.21-.72-1.14-.72-.24,0-.41-.07-.41-.21,0-.17.19-.21.55-.21,1.26,0,2.27.07,2.48.07.17,0,1.19-.07,1.98-.07.26,0,.43.05.43.19,0,.17-.12.24-.33.24-.24,0-.57.02-.83.12-.57.21-.83,1.17-1.34,2.53-1.1,3.01-3.6,10.59-4.77,14.17-.26.83-.38,1.12-.69,1.12-.24,0-.38-.29-.74-1.17l-4.96-11.95h-.05c-.45,1.22-3.62,9.66-4.65,11.85-.45.98-.57,1.26-.86,1.26-.24,0-.33-.26-.55-.88h0Zm-15.56-6.87h0c-.1,0-.12-.07-.1-.17l2.19-5.87c.02-.1.07-.21.14-.21s.1.12.12.21l2.15,5.89c.02.07,0,.14-.12.14h-4.39Z"/>
</svg>