<?xml version="1.0" encoding="UTF-8"?>
<svg id="Layer_1" data-name="Layer 1" xmlns="http://www.w3.org/2000/svg" xmlns:xlink="http://www.w3.org/1999/xlink" viewBox="0 0 300 300">
  <defs>
    <style>
      .cls-1 {
        fill: url(#GradientFill_17);
      }

      .cls-1, .cls-2, .cls-3, .cls-4, .cls-5, .cls-6, .cls-7, .cls-8, .cls-9, .cls-10, .cls-11, .cls-12, .cls-13, .cls-14, .cls-15, .cls-16, .cls-17, .cls-18, .cls-19, .cls-20, .cls-21, .cls-22, .cls-23 {
        stroke-width: 0px;
      }

      .cls-1, .cls-2, .cls-3, .cls-4, .cls-5, .cls-6, .cls-8, .cls-9, .cls-10, .cls-11, .cls-12, .cls-13, .cls-14, .cls-15, .cls-16, .cls-17, .cls-18, .cls-20, .cls-21, .cls-22, .cls-23 {
        fill-rule: evenodd;
      }

      .cls-2 {
        fill: url(#GradientFill_11-2);
      }

      .cls-3 {
        fill: url(#GradientFill_16);
      }

      .cls-4 {
        fill: url(#GradientFill_9);
      }

      .cls-5 {
        fill: url(#GradientFill_12);
      }

      .cls-6 {
        fill: url(#GradientFill_2);
      }

      .cls-7 {
        fill: url(#GradientFill_5);
      }

      .cls-8 {
        fill: url(#GradientFill_9-2);
      }

      .cls-9 {
        fill: url(#GradientFill_8);
      }

      .cls-10 {
        fill: url(#GradientFill_10);
      }

      .cls-11 {
        fill: url(#GradientFill_4-2);
      }

      .cls-12 {
        fill: url(#GradientFill_10-2);
      }

      .cls-13 {
        fill: url(#GradientFill_11);
      }

      .cls-14 {
        fill: url(#GradientFill_2-2);
      }

      .cls-15 {
        fill: url(#GradientFill_14);
      }

      .cls-16 {
        fill: url(#GradientFill_9-3);
      }

      .cls-17 {
        fill: url(#GradientFill_8-2);
      }

      .cls-18 {
        fill: url(#GradientFill_8-3);
      }

      .cls-19 {
        fill: url(#GradientFill_20);
      }

      .cls-20 {
        fill: url(#GradientFill_13);
      }

      .cls-21 {
        fill: url(#GradientFill_7);
      }

      .cls-22 {
        fill: url(#GradientFill_15);
      }

      .cls-23 {
        fill: url(#GradientFill_4);
      }
    </style>
    <linearGradient id="GradientFill_16" data-name="GradientFill 16" x1="200.35" y1="269.56" x2="174.12" y2="207.75" gradientUnits="userSpaceOnUse">
      <stop offset="0" stop-color="#d9a93b"/>
      <stop offset=".13" stop-color="#f4dd79"/>
      <stop offset=".26" stop-color="#dcbe5b"/>
      <stop offset=".37" stop-color="#bd8e2d"/>
      <stop offset=".5" stop-color="#995925"/>
      <stop offset=".74" stop-color="#fcea8b"/>
      <stop offset=".89" stop-color="#a86428"/>
      <stop offset="1" stop-color="#563411"/>
    </linearGradient>
    <linearGradient id="GradientFill_2" data-name="GradientFill 2" x1="150.71" y1="247.92" x2="172.26" y2="203.73" gradientUnits="userSpaceOnUse">
      <stop offset="0" stop-color="#7c1315"/>
      <stop offset=".41" stop-color="#c51f25"/>
      <stop offset=".7" stop-color="#f05655"/>
      <stop offset="1" stop-color="#771113"/>
    </linearGradient>
    <linearGradient id="GradientFill_17" data-name="GradientFill 17" x1="100.51" y1="274.22" x2="129.27" y2="199.3" gradientUnits="userSpaceOnUse">
      <stop offset="0" stop-color="#d9a93b"/>
      <stop offset=".13" stop-color="#f4dd79"/>
      <stop offset=".26" stop-color="#dcbe5b"/>
      <stop offset=".33" stop-color="#bd8e2d"/>
      <stop offset=".5" stop-color="#dec576"/>
      <stop offset=".6" stop-color="#fcea8b"/>
      <stop offset=".78" stop-color="#a86428"/>
      <stop offset="1" stop-color="#563411"/>
    </linearGradient>
    <linearGradient id="GradientFill_2-2" data-name="GradientFill 2" x1="102.02" y1="256.15" x2="123.36" y2="212.38" xlink:href="#GradientFill_2"/>
    <linearGradient id="GradientFill_4" data-name="GradientFill 4" x1="244.16" y1="127.38" x2="56.16" y2="107.62" gradientUnits="userSpaceOnUse">
      <stop offset="0" stop-color="#d9a93b"/>
      <stop offset=".13" stop-color="#f4dd79"/>
      <stop offset=".34" stop-color="#bd8e2d"/>
      <stop offset=".52" stop-color="#995925"/>
      <stop offset=".7" stop-color="#efe59e"/>
      <stop offset=".86" stop-color="#fcf6b6"/>
      <stop offset="1" stop-color="#f6e7a1"/>
    </linearGradient>
    <linearGradient id="GradientFill_5" data-name="GradientFill 5" x1="103.56" y1="213.03" x2="193.66" y2="28.31" gradientTransform="translate(127.06 -71.76) rotate(45)" gradientUnits="userSpaceOnUse">
      <stop offset="0" stop-color="#d9a93b"/>
      <stop offset=".13" stop-color="#f4dd79"/>
      <stop offset=".35" stop-color="#dcbe5b"/>
      <stop offset=".45" stop-color="#bd8e2d"/>
      <stop offset=".52" stop-color="#995925"/>
      <stop offset=".59" stop-color="#efe59e"/>
      <stop offset=".73" stop-color="#fcf6b6"/>
      <stop offset="1" stop-color="#f6e7a1"/>
    </linearGradient>
    <linearGradient id="GradientFill_4-2" data-name="GradientFill 4" x1="67.29" y1="141.26" x2="233.05" y2="93.73" xlink:href="#GradientFill_4"/>
    <linearGradient id="GradientFill_20" data-name="GradientFill 20" x1="150.16" y1="195.45" x2="150.16" y2="32.12" gradientTransform="translate(33.19 -33.07) rotate(14.12)" gradientUnits="userSpaceOnUse">
      <stop offset="0" stop-color="#000002"/>
      <stop offset=".17" stop-color="#424242"/>
      <stop offset=".66" stop-color="#000002"/>
      <stop offset=".82" stop-color="#5e5f5f"/>
      <stop offset="1" stop-color="#000002"/>
    </linearGradient>
    <linearGradient id="GradientFill_7" data-name="GradientFill 7" x1="158.65" y1="167.97" x2="113.3" y2="92.49" gradientUnits="userSpaceOnUse">
      <stop offset="0" stop-color="#d2ab67"/>
      <stop offset=".2" stop-color="#bd7729"/>
      <stop offset=".59" stop-color="#ffe986"/>
      <stop offset=".89" stop-color="#c48127"/>
      <stop offset="1" stop-color="#fde981"/>
    </linearGradient>
    <linearGradient id="GradientFill_8" data-name="GradientFill 8" x1="170.06" y1="79.78" x2="163.44" y2="51.1" gradientUnits="userSpaceOnUse">
      <stop offset="0" stop-color="#dec27a"/>
      <stop offset=".2" stop-color="#d0a04f"/>
      <stop offset=".59" stop-color="#fcea8f"/>
      <stop offset=".89" stop-color="#d7a84f"/>
      <stop offset="1" stop-color="#fcea8b"/>
    </linearGradient>
    <linearGradient id="GradientFill_9" data-name="GradientFill 9" x1="155.7" y1="65.02" x2="150.38" y2="86.38" gradientUnits="userSpaceOnUse">
      <stop offset="0" stop-color="#8a6026"/>
      <stop offset="1" stop-color="#fff1ab"/>
    </linearGradient>
    <linearGradient id="GradientFill_10" data-name="GradientFill 10" x1="150.43" y1="89.41" x2="163.41" y2="78.13" gradientUnits="userSpaceOnUse">
      <stop offset="0" stop-color="#7d4d1f"/>
      <stop offset="1" stop-color="#e0b745"/>
    </linearGradient>
    <linearGradient id="GradientFill_10-2" data-name="GradientFill 10" x1="170.77" y1="85.67" x2="173.12" y2="81.91" xlink:href="#GradientFill_10"/>
    <linearGradient id="GradientFill_9-2" data-name="GradientFill 9" x1="173.78" y1="65.81" x2="177.99" y2="85.6" xlink:href="#GradientFill_9"/>
    <linearGradient id="GradientFill_11" data-name="GradientFill 11" x1="176.62" y1="70.34" x2="199.37" y2="47.59" gradientUnits="userSpaceOnUse">
      <stop offset="0" stop-color="#5a3511"/>
      <stop offset="1" stop-color="#e0b745"/>
    </linearGradient>
    <linearGradient id="GradientFill_12" data-name="GradientFill 12" x1="170.88" y1="58.49" x2="186" y2="60.89" gradientUnits="userSpaceOnUse">
      <stop offset="0" stop-color="#f8d367"/>
      <stop offset="1" stop-color="#fff1ab"/>
    </linearGradient>
    <linearGradient id="GradientFill_11-2" data-name="GradientFill 11" x1="153.53" y1="71.07" x2="138.55" y2="57.58" xlink:href="#GradientFill_11"/>
    <linearGradient id="GradientFill_13" data-name="GradientFill 13" x1="143.6" y1="60.33" x2="158.92" y2="58.99" gradientUnits="userSpaceOnUse">
      <stop offset="0" stop-color="#583512"/>
      <stop offset="1" stop-color="#e0b745"/>
    </linearGradient>
    <linearGradient id="GradientFill_9-3" data-name="GradientFill 9" x1="158.58" y1="56.86" x2="169.45" y2="34.56" xlink:href="#GradientFill_9"/>
    <linearGradient id="GradientFill_14" data-name="GradientFill 14" x1="176.99" y1="73.52" x2="166.74" y2="49.37" gradientUnits="userSpaceOnUse">
      <stop offset="0" stop-color="#7d4d1f"/>
      <stop offset="1" stop-color="#fff1ab"/>
    </linearGradient>
    <linearGradient id="GradientFill_15" data-name="GradientFill 15" x1="185.63" y1="62.42" x2="143.41" y2="72.17" gradientUnits="userSpaceOnUse">
      <stop offset="0" stop-color="#482a0f"/>
      <stop offset=".1" stop-color="#a77129"/>
      <stop offset=".15" stop-color="#fff"/>
      <stop offset=".4" stop-color="#8e5923"/>
      <stop offset=".5" stop-color="#d8a64d"/>
      <stop offset=".59" stop-color="#f5e380"/>
      <stop offset=".77" stop-color="#fff"/>
      <stop offset=".88" stop-color="#a0752b"/>
      <stop offset="1" stop-color="#664219"/>
    </linearGradient>
    <linearGradient id="GradientFill_8-2" data-name="GradientFill 8" x1="146.05" y1="157.53" x2="142.87" y2="143.75" xlink:href="#GradientFill_8"/>
    <linearGradient id="GradientFill_8-3" data-name="GradientFill 8" x1="153.76" y1="133.02" x2="145.45" y2="97.04" xlink:href="#GradientFill_8"/>
  </defs>
  <g>
    <polygon class="cls-3" points="116.58 153.54 176.78 128.78 229.22 256.23 192.52 252.61 169.02 281 116.58 153.54"/>
    <path class="cls-6" d="m122.94,150.93l51.05,124.07-1.02,1.23-51.33-124.77,1.31-.54h0Zm47.47-19.53h0l51.05,124.07,1.59.16-51.34-124.77-1.31.54Z"/>
  </g>
  <g>
    <polygon class="cls-1" points="183.44 153.54 123.24 128.78 70.8 256.23 107.51 252.61 131 281 183.44 153.54"/>
    <path class="cls-14" d="m177.08,150.93l-51.05,124.07,1.02,1.23,51.33-124.77-1.31-.54h0Zm-47.47-19.53h0l-51.05,124.07-1.59.16,51.34-124.77,1.31.54Z"/>
  </g>
  <g>
    <path class="cls-23" d="m55.16,107.77c2.69-26.23,15.75-48.89,34.7-64.32,18.95-15.43,43.79-23.63,70.02-20.94,26.23,2.69,48.89,15.75,64.32,34.7,15.43,18.95,23.63,43.79,20.94,70.02-2.69,26.23-15.75,48.89-34.7,64.32-18.95,15.43-43.79,23.63-70.02,20.94-26.23-2.69-48.89-15.75-64.32-34.7-15.43-18.95-23.63-43.79-20.94-70.02h0Zm36.46-62.16h0c-18.4,14.98-31.08,36.98-33.69,62.45-2.61,25.47,5.35,49.58,20.33,67.98,14.98,18.4,36.98,31.08,62.45,33.69,25.47,2.61,49.58-5.35,67.98-20.33,18.4-14.98,31.08-36.98,33.69-62.45,2.61-25.47-5.35-49.58-20.33-67.98-14.98-18.4-36.98-31.08-62.45-33.69-25.47-2.61-49.58,5.35-67.98,20.33Z"/>
    <circle class="cls-7" cx="150.16" cy="117.5" r="93.92" transform="translate(-39.1 140.59) rotate(-45)"/>
    <path class="cls-11" d="m230.04,93.26c6.69,22.06,3.81,44.74-6.25,63.58-10.07,18.84-27.33,33.84-49.38,40.54-22.06,6.69-44.74,3.81-63.58-6.25-18.84-10.07-33.84-27.33-40.54-49.38-6.69-22.06-3.81-44.74,6.25-63.58,10.07-18.84,27.33-33.84,49.38-40.54,22.06-6.69,44.74-3.81,63.58,6.25,18.84,10.07,33.84,27.33,40.54,49.38h0Zm-8.4,62.44h0c9.78-18.29,12.57-40.32,6.07-61.73-6.5-21.42-21.06-38.17-39.36-47.95-18.29-9.78-40.32-12.57-61.73-6.07-21.42,6.5-38.17,21.06-47.95,39.36-9.78,18.29-12.57,40.32-6.07,61.73,6.5,21.42,21.06,38.17,39.36,47.94,18.29,9.78,40.32,12.57,61.73,6.07,21.42-6.5,38.17-21.06,47.95-39.36Z"/>
  </g>
  <circle class="cls-19" cx="150.16" cy="117.5" r="81.36" transform="translate(-24.12 40.17) rotate(-14.12)"/>
  <path class="cls-21" d="m93.38,159.31l1.5-2.35-1.33-2.39,2.7.7,1.87-2.01.17,2.79,2.49,1.15-2.6,1.02-.33,2.72-1.78-2.15-2.69.53h0Zm5.36,6.91h0l2.59-.88,2.05,1.9-.04-2.74,2.44-1.36-2.62-.81-.54-2.74-1.58,2.24-2.77-.33,1.64,2.2-1.17,2.53h0Zm12.96,11.21h0l.48-2.75-2.15-1.7,2.76-.39.95-2.57,1.23,2.51,2.74.11-2,1.94.75,2.64-2.47-1.3-2.28,1.52h0Zm15.42,7.47h0l-.25-2.78-2.52-1.08,2.57-1.09.25-2.73,1.84,2.1,2.67-.6-1.43,2.4,1.4,2.35-2.72-.62-1.81,2.06h0Zm16.83,3.23h0l-.96-2.62-2.71-.39,2.2-1.72-.47-2.7,2.32,1.56,2.42-1.28-.76,2.69,1.96,1.91-2.79.11-1.21,2.46h0Zm17.09-1.24h0l-1.6-2.28-2.72.32,1.67-2.23-1.15-2.49,2.64.9,2.01-1.86-.04,2.79,2.39,1.34-2.67.82-.53,2.69h0Zm16.18-5.62h0l-2.14-1.79-2.55,1.02,1.04-2.59-1.75-2.11,2.79.19,1.46-2.32.68,2.71,2.66.67-2.36,1.49.18,2.73h0Zm14.18-9.62h0l-2.53-1.17-2.2,1.64.33-2.77-2.24-1.58,2.74-.54.81-2.62,1.36,2.44,2.74-.04-1.9,2.05.88,2.59h0Zm11.21-12.96h0l-2.75-.48-1.7,2.15-.39-2.76-2.57-.95,2.51-1.23.11-2.74,1.94,2,2.64-.74-1.3,2.47,1.52,2.28h0ZM118.36,63.95h0l2.14,1.79,2.55-1.02-1.04,2.59,1.75,2.11-2.78-.19-1.46,2.32-.68-2.71-2.66-.67,2.36-1.49-.18-2.73h0Zm-14.18,9.62h0l2.53,1.17,2.2-1.64-.33,2.77,2.24,1.58-2.74.54-.81,2.62-1.36-2.44-2.74.04,1.9-2.05-.88-2.6h0Zm-11.21,12.96h0l2.75.48,1.7-2.15.39,2.76,2.57.95-2.51,1.23-.11,2.74-1.94-2-2.64.75,1.31-2.47-1.52-2.28h0Zm-7.47,15.42h0l2.78-.25,1.08-2.52,1.1,2.57,2.73.25-2.1,1.84.61,2.67-2.4-1.43-2.35,1.4.62-2.72-2.06-1.81h0Zm-3.23,16.83h0l2.62-.96.39-2.71,1.72,2.2,2.7-.47-1.56,2.32,1.28,2.43-2.69-.76-1.91,1.96-.1-2.79-2.46-1.21h0Zm1.24,17.09h0l2.28-1.61-.32-2.72,2.23,1.67,2.49-1.15-.9,2.64,1.86,2.01-2.79-.04-1.34,2.39-.82-2.67-2.69-.53h0Zm5.62,16.18h0l2.74-.18,1.49,2.36.67-2.66,2.71-.68-2.32-1.46.19-2.78-2.11,1.75-2.59-1.04,1.02,2.55-1.79,2.14h0Zm15.6,20.1h0l.84-2.66-1.91-1.97,2.79-.02,1.28-2.42.89,2.65,2.7.47-2.24,1.66.39,2.71-2.27-1.62-2.46,1.21h0Zm14.29,9.46h0l2.07-1.8,2.61.98-1.07-2.52,1.74-2.18-2.73.25-1.54-2.33-.61,2.67-2.69.74,2.35,1.41-.12,2.79h0Zm16.25,5.44h0l1.53-2.27,2.78.27-1.69-2.15,1.11-2.56-2.57.94-2.09-1.85.1,2.74-2.41,1.41,2.64.75.6,2.72h0Zm17.1,1.05h0l.89-2.59,2.75-.46-2.19-1.64.41-2.76-2.24,1.58-2.5-1.25.81,2.62-1.96,1.99,2.74.04,1.29,2.48h0Zm16.79-3.42h0l.19-2.73,2.54-1.16-2.54-1.02-.32-2.77-1.76,2.1-2.73-.56,1.46,2.32-1.38,2.43,2.66-.67,1.88,2.06h0Zm15.33-7.64h0l-.53-2.69,2.15-1.78-2.72-.33-1.02-2.6-1.15,2.49-2.79.17,2.01,1.87-.7,2.7,2.39-1.33,2.35,1.5h0Zm12.83-11.35h0l-1.21-2.46,1.62-2.27-2.71.39-1.66-2.24-.47,2.7-2.65.89,2.42,1.28.02,2.79,1.97-1.91,2.66.84h0Zm9.46-14.29h0l-1.8-2.06.98-2.61-2.52,1.08-2.19-1.74.25,2.73-2.33,1.54,2.67.61.74,2.69,1.41-2.35,2.79.12h0Zm-95.68-83.18h0l.53,2.69-2.15,1.77,2.72.33,1.02,2.6,1.15-2.49,2.79-.17-2.01-1.87.7-2.7-2.39,1.33-2.35-1.5h0Zm-12.83,11.35h0l1.21,2.46-1.62,2.27,2.71-.39,1.66,2.24.47-2.7,2.65-.89-2.42-1.28-.02-2.79-1.97,1.91-2.66-.84h0Zm-9.46,14.29h0l1.8,2.06-.98,2.61,2.52-1.08,2.18,1.74-.24-2.73,2.33-1.54-2.67-.61-.74-2.69-1.41,2.35-2.79-.12h0Zm-5.44,16.25h0l2.27,1.53-.27,2.78,2.16-1.69,2.56,1.11-.94-2.57,1.85-2.09-2.74.1-1.42-2.41-.75,2.64-2.73.6h0Zm-1.05,17.1h0l2.59.89.46,2.75,1.64-2.19,2.76.41-1.58-2.24,1.25-2.5-2.62.81-1.99-1.96-.04,2.74-2.47,1.29h0Zm3.42,16.79h0l2.06-1.88-.67-2.66,2.43,1.37,2.32-1.46-.56,2.74,2.1,1.76-2.77.32-1.02,2.54-1.16-2.54-2.73-.19Z"/>
  <g>
    <g>
      <path class="cls-9" d="m170.9,60.09l13.09,1.48,2.72-.88h0s-2.71.88-2.71.88h0s-9.79,8.95-9.79,8.95l-.49.45,1.29.41h0s-1.29-.41-1.29-.41h0s.13.65.13.65l2.66,12.99h0s-5.61-3.19-5.61-3.19v-21.34h0Zm0-1.09h0s.06-.09.06-.09h0s-.07.09-.07.09h0Zm-6.5-14.53h0v2.86s-5.48,12.06-5.48,12.06l-.27.6h0s0,0,0,0l-.67.08-13.17,1.48h0s9.79,8.95,9.79,8.95l.49.45h0s-.2.06-.2.06l.2-.06-.13.65-2.66,12.99h0s11.54-6.54,11.54-6.54l.58-.33h0s.58.33.58.33l5.92,3.36v-21.34h-.07s-.67-.08-.67-.08v-.02s-.28-.6-.28-.6l-5.47-12.05v-2.86s0-.01,0-.01h0Zm6.5,14.52h0l-.07.09.07-.09h0Z"/>
      <polygon class="cls-4" points="148.98 89.2 148.94 89.22 149.46 86.68 152.51 71.8 152.5 71.8 155.08 70.97 154.95 71.62 152.29 84.61 152.33 84.59 148.98 89.2"/>
      <polygon class="cls-10" points="164.4 80.45 151.19 87.94 148.94 89.22 148.94 89.22 152.29 84.61 152.29 84.61 163.82 78.07 164.4 77.74 164.4 80.45"/>
      <polygon class="cls-12" points="179.87 89.22 177.61 87.94 164.4 80.45 164.4 80.45 164.4 77.74 164.4 77.74 164.99 78.07 176.52 84.61 176.52 84.61 179.87 89.22"/>
      <polygon class="cls-8" points="176.31 71.79 176.3 71.8 179.35 86.68 179.87 89.22 179.87 89.22 176.52 84.61 176.52 84.61 173.86 71.62 173.73 70.97 173.73 70.97 176.31 71.79"/>
      <polygon class="cls-13" points="189.41 59.82 187.51 61.55 176.31 71.79 173.73 70.97 174.22 70.52 184.01 61.57 184 61.57 189.41 59.82"/>
      <polygon class="cls-5" points="171.79 57.81 186.85 59.51 189.43 59.8 189.41 59.82 183.99 61.57 170.83 60.08 170.16 60.01 170.16 59.99 171.79 57.81"/>
      <polygon class="cls-2" points="152.5 71.8 141.3 61.55 139.39 59.82 144.82 61.57 144.8 61.57 154.59 70.52 155.08 70.97 155.08 70.97 152.5 71.8"/>
      <polygon class="cls-20" points="139.4 59.82 139.38 59.8 141.96 59.51 157.04 57.81 158.65 60 158.64 60.01 157.98 60.08 144.81 61.57 139.4 59.82"/>
      <polygon class="cls-16" points="157.04 57.81 157.05 57.81 163.33 43.99 164.4 41.62 164.41 41.63 164.4 47.33 158.92 59.4 158.65 60 157.04 57.81"/>
      <polygon class="cls-15" points="165.48 43.99 171.79 57.81 170.16 60.01 170.16 60.01 169.89 59.4 164.41 47.35 164.41 41.63 165.48 43.99"/>
    </g>
    <path class="cls-22" d="m164.49,47.32l5.75,12.54,13.71,1.59.22.03-.16.15-10.15,9.34,2.72,13.53.04.22-.19-.11-12.02-6.77-12.02,6.77-.19.11.04-.22,2.72-13.53-10.15-9.34-.16-.15.22-.03,13.71-1.59,5.75-12.54.09-.2.09.2h0Zm5.59,12.68h0l-5.68-12.39-5.68,12.39-.02.05h-.06s-13.54,1.58-13.54,1.58l10.03,9.23.04.04v.06s-2.7,13.36-2.7,13.36l11.88-6.69.05-.03.05.03,11.88,6.69-2.69-13.36v-.06s.03-.04.03-.04l10.03-9.23-13.54-1.57h-.06s-.02-.06-.02-.06Z"/>
  </g>
  <path class="cls-17" d="m105.22,145.69h1.95l1.51,5.93h.03v-5.93h1.39v9.9h-1.6l-1.87-7.23h-.03v7.23h-1.39v-9.9h0Zm74.24,0h4.24v1.41h-2.69v2.62h2.14v1.41h-2.14v3.04h2.69v1.41h-4.24v-9.9h0Zm-7.61,0h2.22l.99,7.09h.03l.99-7.09h2.22v9.9h-1.47v-7.5h-.03l-1.13,7.5h-1.3l-1.13-7.5h-.03v7.5h-1.36v-9.9h0Zm-4.47,0h2.11l1.61,9.9h-1.56l-.28-1.97v.03h-1.77l-.28,1.94h-1.44l1.61-9.9h0Zm1.7,6.62h0l-.69-4.89h-.03l-.68,4.89h1.4Zm-8.94-6.62h1.95l1.51,5.93h.03v-5.93h1.39v9.9h-1.6l-1.87-7.23h-.03v7.23h-1.39v-9.9h0Zm-8.3,0h1.95l1.51,5.93h.03v-5.93h1.39v9.9h-1.6l-1.87-7.23h-.03v7.23h-1.39v-9.9h0Zm-3.41,10.04h0c-.76,0-1.35-.22-1.75-.65-.41-.43-.61-1.05-.61-1.84v-5.21c0-.79.2-1.41.61-1.84.41-.43.99-.65,1.75-.65s1.35.22,1.75.65c.41.43.61,1.05.61,1.84v5.21c0,.79-.2,1.41-.61,1.84-.41.43-.99.65-1.75.65h0Zm0-1.41h0c.54,0,.81-.33.81-.98v-5.4c0-.65-.27-.98-.81-.98s-.81.33-.81.98v5.4c0,.65.27.98.81.98h0Zm-4.97-8.63h1.56v9.9h-1.56v-9.9h0Zm-3.93,1.41h-1.63v-1.41h4.81v1.41h-1.63v8.49h-1.56v-8.49h0Zm-5.04-1.41h0l-1.61,9.9h1.44l.28-1.94h1.77v-.03l.28,1.97h1.56l-1.61-9.9h-2.11Zm1.7,6.62h-1.4l.68-4.89h.03l.69,4.89h0Zm-8.94-6.62h1.95l1.51,5.93h.03v-5.93h1.39v9.9h-1.6l-1.87-7.23h-.03v7.23h-1.39v-9.9h0Zm-2.72,0h1.56v9.9h-1.56v-9.9h0Zm-7.61,0h2.22l.99,7.09h.03l.99-7.09h2.22v9.9h-1.47v-7.5h-.03l-1.13,7.5h-1.3l-1.13-7.5h-.03v7.5h-1.36v-9.9h0Zm-3.41,10.04h0c-.76,0-1.35-.22-1.75-.65-.41-.43-.61-1.05-.61-1.84v-5.21c0-.79.2-1.41.61-1.84.41-.43.99-.65,1.75-.65s1.35.22,1.75.65c.41.43.61,1.05.61,1.84v5.21c0,.79-.2,1.41-.61,1.84-.41.43-.99.65-1.75.65h0Zm0-1.41h0c.54,0,.81-.33.81-.98v-5.4c0-.65-.27-.98-.81-.98s-.81.33-.81.98v5.4c0,.65.27.98.81.98Z"/>
  <path class="cls-18" d="m115.49,105.75c.12,0,.19.05.24.17l1.92,5.08c.12.29-.05.5-.22.55-.24.02-.34.07-.34.22,0,.17.29.17.72.19,1.92.05,3.67.05,4.53.05s1.1-.05,1.1-.24c0-.17-.12-.19-.31-.19-.29,0-.65-.02-1.01-.1-.5-.14-1.2-.48-2.11-2.63-1.53-3.63-5.37-13.42-5.95-14.74-.24-.55-.38-.77-.6-.77-.24,0-.38.26-.67.96l-6.02,15.06c-.48,1.2-.94,2.01-2.04,2.16-.19.02-.53.05-.74.05-.19,0-.29.05-.29.19,0,.19.14.24.46.24,1.25,0,2.57-.07,2.83-.07.74,0,1.77.07,2.54.07.26,0,.41-.05.41-.24,0-.14-.07-.19-.36-.19h-.36c-.74,0-.96-.31-.96-.74,0-.29.12-.86.36-1.46l1.29-3.43c.05-.14.1-.19.22-.19h5.35Zm75.4,22.49h0c0,2.21,0,4.1-.12,5.11-.1.7-.22,1.22-.7,1.32-.22.05-.5.1-.86.1-.29,0-.38.07-.38.19,0,.17.17.24.48.24.96,0,2.47-.07,2.93-.07.36,0,2.13.07,3.53.07.31,0,.48-.07.48-.24,0-.12-.1-.19-.29-.19-.29,0-.82-.05-1.18-.1-.72-.1-.86-.62-.94-1.32-.12-1.01-.12-2.9-.12-5.13v-.34c0-.14.07-.19.19-.19l2.09.05c.17,0,.31.02.43.17.31.36,1.41,1.99,2.37,3.31,1.34,1.85,2.25,2.97,3.29,3.53.62.34,1.22.46,2.57.46h2.28c.29,0,.46-.05.46-.24,0-.12-.1-.19-.29-.19s-.41-.02-.67-.07c-.36-.07-1.34-.24-2.69-1.63-1.42-1.49-3.07-3.62-5.2-6.31,2.42-1.97,3.17-3.6,3.17-5.37,0-1.61-.96-2.83-1.63-3.29-1.29-.89-2.9-1.03-4.41-1.03-.74,0-2.57.07-3.38.07-.5,0-2.01-.07-3.29-.07-.36,0-.53.05-.53.22s.14.22.41.22c.34,0,.74.02.94.07.79.17.98.55,1.03,1.37.05.77.05,1.44.05,5.08v4.22h0Zm2.83-9.62h0c0-.19.05-.29.22-.34.24-.07.67-.1,1.27-.1,1.41,0,3.67.98,3.67,4.39,0,1.97-.7,3.07-1.41,3.6-.43.31-.74.41-1.7.41-.6,0-1.32-.07-1.82-.24-.17-.07-.22-.17-.22-.43v-7.29h0Zm-16.42,9.62h0c0,2.21,0,4.1-.12,5.11-.1.7-.22,1.22-.7,1.32-.22.05-.5.1-.86.1-.29,0-.38.07-.38.19,0,.17.17.24.48.24.48,0,1.1-.05,1.65-.05.58-.02,1.1-.02,1.37-.02.72,0,1.46.02,2.49.07,1.03.02,2.35.07,4.15.07.91,0,1.13,0,1.3-.62.12-.48.31-2.11.31-2.66,0-.24,0-.43-.19-.43-.17,0-.22.1-.26.36-.17.98-.46,1.49-1.08,1.77-.62.29-1.63.29-2.25.29-2.45,0-2.83-.36-2.88-2.01-.02-.7,0-2.9,0-3.72v-1.89c0-.14.02-.24.14-.24.58,0,2.95.02,3.41.07.89.1,1.22.46,1.34.93.07.31.07.62.1.86,0,.12.05.22.22.22.22,0,.22-.26.22-.46,0-.17.07-1.13.1-1.61.1-1.22.19-1.61.19-1.75s-.07-.19-.17-.19c-.12,0-.22.12-.38.31-.22.24-.58.31-1.15.36-.55.05-3.31.05-3.84.05-.14,0-.17-.1-.17-.26v-6.07c0-.17.05-.24.17-.24.48,0,3,.05,3.41.1,1.2.14,1.44.43,1.61.86.12.29.14.7.14.86,0,.22.05.34.22.34s.22-.14.24-.26c.05-.29.1-1.34.12-1.58.07-1.1.19-1.39.19-1.56,0-.12-.02-.22-.14-.22s-.26.07-.38.1c-.19.05-.58.1-1.03.14-.46.02-5.23.02-6,.02-.34,0-.89-.02-1.51-.05-.6,0-1.29-.02-1.94-.02-.36,0-.53.05-.53.22s.14.22.41.22c.34,0,.74.02.94.07.79.17.98.55,1.03,1.37.05.77.05,1.44.05,5.08v4.22h0Zm-20.05-6.38h.07c.43.46,3.09,3.45,5.7,6.04,2.49,2.47,5.56,5.61,7.07,7.05.26.26.55.53.81.53.22,0,.31-.22.31-.74l.26-15.13c.02-1.34.22-1.85.89-2.04.29-.07.48-.07.72-.07.29,0,.43-.07.43-.22,0-.19-.24-.22-.55-.22-1.18,0-2.09.07-2.35.07-.5,0-1.65-.07-2.9-.07-.36,0-.62.02-.62.22,0,.14.1.22.38.22.34,0,.91,0,1.27.14.58.24.79.7.82,2.16l.24,10.77h-.12c-.41-.38-3.64-3.84-5.27-5.47-3.5-3.48-7.14-7.39-7.43-7.7-.41-.43-.63-.74-.89-.74-.24,0-.31.34-.31.82l-.22,14.2c-.02,2.09-.12,2.78-.74,2.97-.34.1-.77.12-1.08.12-.24,0-.38.05-.38.19,0,.22.22.24.53.24,1.25,0,2.37-.07,2.59-.07.46,0,1.42.07,2.98.07.34,0,.55-.05.55-.24,0-.14-.14-.19-.41-.19-.38,0-.84-.02-1.25-.17-.48-.17-.79-.79-.84-2.66l-.26-10.07h0Zm-21.14,0h.07c.43.46,3.09,3.45,5.7,6.04,2.49,2.47,5.56,5.61,7.07,7.05.26.26.55.53.82.53.22,0,.31-.22.31-.74l.26-15.13c.02-1.34.22-1.85.89-2.04.29-.07.48-.07.72-.07.29,0,.43-.07.43-.22,0-.19-.24-.22-.55-.22-1.18,0-2.09.07-2.35.07-.5,0-1.65-.07-2.9-.07-.36,0-.62.02-.62.22,0,.14.1.22.38.22.34,0,.91,0,1.27.14.58.24.79.7.82,2.16l.24,10.77h-.12c-.41-.38-3.64-3.84-5.27-5.47-3.5-3.48-7.14-7.39-7.43-7.7-.41-.43-.63-.74-.89-.74-.24,0-.31.34-.31.82l-.22,14.2c-.02,2.09-.12,2.78-.74,2.97-.34.1-.77.12-1.08.12-.24,0-.38.05-.38.19,0,.22.22.24.53.24,1.25,0,2.37-.07,2.59-.07.46,0,1.42.07,2.98.07.34,0,.55-.05.55-.24,0-.14-.14-.19-.41-.19-.38,0-.84-.02-1.25-.17-.48-.17-.79-.79-.84-2.66l-.26-10.07h0Zm-10.36,6.38h0c0,2.33,0,4.22-.12,5.23-.07.7-.22,1.1-.7,1.2-.22.05-.5.1-.86.1-.29,0-.38.07-.38.19,0,.17.17.24.48.24.96,0,2.47-.07,3.02-.07.65,0,2.16.07,3.74.07.26,0,.46-.07.46-.24,0-.12-.12-.19-.38-.19-.36,0-.89-.05-1.22-.1-.72-.1-.89-.53-.96-1.18-.1-1.03-.1-2.93-.1-5.25v-4.22c0-3.65,0-4.32.05-5.08.05-.84.24-1.25.89-1.37.29-.05.48-.07.72-.07s.38-.05.38-.24c0-.14-.19-.19-.5-.19-.91,0-2.33.07-2.93.07-.7,0-2.21-.07-3.12-.07-.12,0-.22,0-.3.01-.06-.01-.13-.01-.22-.01-.79,0-1.82.07-1.99.07-.22,0-1.22-.07-2.49-.07-.36,0-.55.05-.55.22,0,.14.17.22.41.22.94,0,1.15.34,1.15.72,0,.34-.07.84-.24,1.39-.84,2.81-2.76,9.14-3.19,10.74h-.07l-4.99-12.08c-.31-.77-.43-1.13-.7-1.13-.19,0-.36.19-.6.87l-4.65,12.51h-.07c-.43-1.34-2.66-8.62-3.07-10.2-.29-1.06-.53-1.87-.53-2.19,0-.26.05-.43.26-.53.17-.1.41-.1.6-.1.24,0,.43-.02.43-.22,0-.14-.17-.22-.5-.22-1.39,0-2.45.07-2.66.07s-1.54-.07-2.78-.07c-.34,0-.53.05-.53.22,0,.19.14.22.38.22.22,0,.7.05.96.22.34.24.6.82.89,1.7l5.08,15.23c.22.62.31.89.55.89.29,0,.41-.29.86-1.27,1.03-2.21,4.22-10.7,4.68-11.92h.05l4.99,12.02c.36.89.5,1.18.74,1.18.31,0,.43-.29.7-1.13,1.18-3.6,3.69-11.22,4.8-14.25.5-1.37.77-2.33,1.34-2.54.26-.1.6-.12.84-.12.04,0,.07,0,.1,0,.04,0,.08,0,.13,0,.29,0,.6.02.86.1.53.12.77.53.82,1.34.05.77.05,1.44.05,5.08v4.22h0Zm52.92-23.18h0c0,2.21,0,4.1-.12,5.11-.1.7-.22,1.22-.7,1.32-.05.01-.09.02-.15.03h-.03c-.36-.08-1.34-.25-2.69-1.64-1.41-1.49-3.07-3.62-5.2-6.31,2.42-1.97,3.17-3.6,3.17-5.37,0-1.61-.96-2.83-1.63-3.29-1.3-.89-2.9-1.03-4.41-1.03-.74,0-2.57.07-3.38.07-.5,0-2.01-.07-3.29-.07-.36,0-.53.05-.53.22s.14.22.41.22c.34,0,.74.02.94.07.79.17.98.55,1.03,1.37.05.77.05,1.44.05,5.08v4.22c0,2.21,0,4.1-.12,5.11-.1.7-.22,1.22-.7,1.32-.18.04-.4.08-.67.09-.24,0-.51-.04-.78-.09-.5-.14-1.2-.48-2.11-2.63-1.53-3.63-5.37-13.42-5.95-14.74-.24-.55-.38-.77-.6-.77-.24,0-.38.26-.67.96l-6.02,15.06c-.48,1.2-.94,2.01-2.04,2.16-.19.02-.53.05-.74.05-.19,0-.29.05-.29.19,0,.19.14.24.46.24,1.25,0,2.57-.07,2.83-.07.74,0,1.77.07,2.54.07.26,0,.41-.05.41-.24,0-.14-.07-.19-.36-.19h-.36c-.74,0-.96-.31-.96-.74,0-.29.12-.86.36-1.46l1.29-3.43c.05-.14.1-.19.22-.19h5.35c.12,0,.19.05.24.17l1.92,5.08c.12.29-.05.5-.22.55-.24.02-.34.07-.34.22,0,.17.29.17.72.19,1.92.05,3.67.05,4.53.05.13,0,.25,0,.36,0,.03,0,.07,0,.11,0,.96,0,2.47-.07,2.93-.07.36,0,2.13.07,3.53.07.31,0,.48-.07.48-.24,0-.12-.1-.19-.29-.19-.29,0-.82-.05-1.17-.1-.72-.1-.86-.62-.94-1.32-.12-1.01-.12-2.9-.12-5.13v-.34c0-.14.07-.19.19-.19l2.09.05c.17,0,.31.02.43.17.31.36,1.41,1.99,2.37,3.31,1.34,1.85,2.25,2.97,3.29,3.52.62.34,1.22.46,2.57.46h2.28c.14,0,.25-.01.33-.05.08,0,.16,0,.23,0,.58-.02,1.1-.02,1.37-.02.6,0,1.44.07,2.35.14.91.07,1.89.14,2.76.14,4.44,0,6.93-1.7,8.03-2.83,1.34-1.37,2.61-3.67,2.61-6.69,0-2.85-1.13-4.84-2.33-6.09-2.61-2.73-6.62-2.73-9.62-2.73-1.44,0-2.95.07-3.69.07-.67,0-2.18-.07-3.45-.07-.36,0-.53.05-.53.22s.14.22.41.22c.34,0,.74.02.94.07.79.17.98.55,1.03,1.37.05.77.05,1.44.05,5.08v4.22h0Zm3-4.6h0c0-1.89,0-3.98.02-4.8,0-.26.07-.38.29-.48.19-.1,1.08-.17,1.56-.17,1.87,0,4.6.29,6.81,2.4,1.03.98,2.3,2.95,2.3,6,0,2.47-.48,4.65-2.01,5.97-1.44,1.25-3.07,1.73-5.52,1.73-1.89,0-2.83-.5-3.14-.96-.19-.26-.24-1.22-.26-1.82-.02-.46-.05-2.3-.05-4.84v-3.02h0Zm-16.7-5.01h0c0-.19.05-.29.22-.34.24-.07.67-.1,1.27-.1,1.42,0,3.67.98,3.67,4.39,0,1.97-.7,3.07-1.42,3.6-.43.31-.74.41-1.7.41-.6,0-1.32-.07-1.82-.24-.17-.07-.22-.17-.22-.43v-7.29h0Zm-16.61,9.11h0c-.1,0-.12-.07-.1-.17l2.21-5.9c.02-.1.07-.22.14-.22s.1.12.12.22l2.16,5.92c.02.07,0,.14-.12.14h-4.41Zm-22.1,6.91h0l-5.08-15.23c-.29-.89-.55-1.46-.89-1.7-.26-.17-.74-.22-.96-.22-.24,0-.38-.02-.38-.22,0-.17.19-.22.53-.22,1.25,0,2.57.07,2.78.07s1.27-.07,2.66-.07c.34,0,.5.07.5.22,0,.19-.19.22-.43.22-.19,0-.43,0-.6.1-.22.1-.26.26-.26.53,0,.31.24,1.13.53,2.19.41,1.59,2.64,8.86,3.07,10.2h.07l4.65-12.51c.24-.68.41-.87.6-.87.26,0,.38.36.7,1.13l4.99,12.08h.07c.43-1.61,2.35-7.94,3.19-10.74.17-.55.24-1.06.24-1.39,0-.38-.22-.72-1.15-.72-.24,0-.41-.07-.41-.22,0-.17.19-.22.55-.22,1.27,0,2.28.07,2.49.07.17,0,1.2-.07,1.99-.07.26,0,.43.05.43.19,0,.17-.12.24-.34.24-.24,0-.58.02-.84.12-.58.22-.84,1.17-1.34,2.54-1.1,3.02-3.62,10.65-4.8,14.25-.26.84-.38,1.13-.7,1.13-.24,0-.38-.29-.74-1.18l-4.99-12.01h-.05c-.46,1.22-3.65,9.71-4.68,11.92-.46.98-.58,1.27-.86,1.27-.24,0-.34-.26-.55-.89h0Zm-15.65-6.91h0c-.1,0-.12-.07-.1-.17l2.21-5.9c.02-.1.07-.22.14-.22s.1.12.12.22l2.16,5.92c.02.07,0,.14-.12.14h-4.41Z"/>
</svg>