<svg width="40" height="40" viewBox="0 0 40 40" fill="none" xmlns="http://www.w3.org/2000/svg">
<path d="M17.9376 29.4984H14.8128C13.6067 29.4984 12.6255 28.5172 12.6255 27.3111V24.1863C12.6255 23.6688 13.0455 23.2488 13.5629 23.2488C14.0804 23.2488 14.5004 23.6688 14.5004 24.1863V27.3111C14.5004 27.4835 14.6403 27.6235 14.8128 27.6235H17.9376C18.4551 27.6235 18.875 28.0435 18.875 28.561C18.875 29.0784 18.4551 29.4984 17.9376 29.4984Z" fill="white"/>
<path d="M25.4371 33.2481H22.3123C21.1061 33.2481 20.125 32.267 20.125 31.0608V25.4362C20.125 24.23 21.1061 23.2488 22.3123 23.2488H25.4371C25.9545 23.2488 26.3745 23.6688 26.3745 24.1863C26.3745 24.7037 25.9545 25.1237 25.4371 25.1237H22.3123C22.1398 25.1237 21.9998 25.2637 21.9998 25.4362V31.0608C21.9998 31.2333 22.1398 31.3733 22.3123 31.3733H24.4996V29.4984H23.5622C23.0447 29.4984 22.6248 29.0784 22.6248 28.561C22.6248 28.0435 23.0447 27.6235 23.5622 27.6235H25.4371C25.9545 27.6235 26.3745 28.0435 26.3745 28.561V32.3107C26.3745 32.8282 25.9545 33.2481 25.4371 33.2481Z" fill="white"/>
<path d="M18.5626 11.9996C18.3063 11.9996 18.0514 11.8947 17.8651 11.6897L15.7503 9.33858L13.6354 11.6897C13.2867 12.0746 12.6967 12.1059 12.3105 11.7597C11.9255 11.4122 11.8943 10.821 12.2405 10.4348L15.0528 7.30998C15.409 6.91501 16.0902 6.91501 16.4465 7.30998L19.2588 10.4348C19.605 10.821 19.5737 11.4122 19.1888 11.7597C19.01 11.9209 18.7863 11.9996 18.5626 11.9996Z" fill="white"/>
<path d="M23.2497 20.749C22.9835 20.749 22.731 20.6365 22.5523 20.439L19.74 17.3143C19.3938 16.928 19.425 16.3368 19.81 15.9894C20.195 15.6419 20.7862 15.6744 21.1349 16.0594L23.2497 18.4104L25.3646 16.0594C25.7121 15.6756 26.3045 15.6444 26.6895 15.9894C27.0745 16.3356 27.1057 16.928 26.7595 17.3143L23.9472 20.439C23.7684 20.6365 23.516 20.749 23.2497 20.749Z" fill="white"/>
<path d="M17.9376 23.2488C17.4201 23.2488 17.0002 23.6688 17.0002 24.1863V32.3107C17.0002 32.8282 17.4201 33.2481 17.9376 33.2481C18.4551 33.2481 18.875 32.8282 18.875 32.3107V24.1863C18.875 23.6688 18.4551 23.2488 17.9376 23.2488Z" fill="white"/>
<path d="M15.7503 7C15.2328 7 14.8128 7.41997 14.8128 7.93743V19.8116C14.8128 20.3291 15.2328 20.749 15.7503 20.749C16.2677 20.749 16.6877 20.3291 16.6877 19.8116V7.93743C16.6877 7.41997 16.2677 7 15.7503 7Z" fill="white"/>
<path d="M23.2497 7C22.7323 7 22.3123 7.41997 22.3123 7.93743V19.8116C22.3123 20.3291 22.7323 20.749 23.2497 20.749C23.7672 20.749 24.1872 20.3291 24.1872 19.8116V7.93743C24.1872 7.41997 23.7672 7 23.2497 7Z" fill="white"/>
</svg>
