<svg width="40" height="40" viewBox="0 0 40 40" fill="none" xmlns="http://www.w3.org/2000/svg">
<path fill-rule="evenodd" clip-rule="evenodd" d="M22.1749 23.9395H16.3661C15.8834 23.9395 15.4852 24.3262 15.4852 24.8124C15.4852 25.2986 15.8833 25.6853 16.3661 25.6853H22.1749C22.6577 25.6853 23.0558 25.2986 23.0558 24.8124C23.0558 24.3261 22.6577 23.9395 22.1749 23.9395ZM32.6306 12.875H26.541V8.59168C26.541 7.15819 25.3607 6 23.9175 6H14.6235C13.1803 6 12 7.15819 12 8.59168V31.5084C12 32.9418 13.1803 34.1 14.6235 34.1H23.9175C25.3607 34.1 26.541 32.9418 26.541 31.5083V18.0583H32.6306C33.1134 18.0583 33.5115 17.6716 33.5115 17.1854V13.7479C33.5115 13.2617 33.1134 12.875 32.6306 12.875ZM24.7792 31.5083C24.7792 31.9704 24.3962 32.3541 23.9175 32.3541H14.6235C14.1449 32.3541 13.7618 31.9704 13.7618 31.5083V8.59168C13.7618 8.12962 14.1449 7.74587 14.6235 7.74587H23.9175C24.3962 7.74587 24.7792 8.12962 24.7792 8.59168V12.875H21.9848C21.2725 12.1421 20.305 11.7292 19.2705 11.7292C17.1869 11.7292 15.4853 13.4015 15.4853 15.4667C15.4853 17.5318 17.1869 19.2042 19.2705 19.2042C20.3051 19.2042 21.2725 18.7912 21.9848 18.0584H24.7792V31.5083ZM18.3953 12.1389C16.8957 12.5228 15.7853 13.8691 15.7853 15.4667C15.7853 17.3623 17.3486 18.9042 19.2705 18.9042C19.3925 18.9042 19.5134 18.898 19.6329 18.8857C19.5134 18.898 19.3925 18.9042 19.2706 18.9042C17.3487 18.9042 15.7853 17.3622 15.7853 15.4667C15.7853 13.8691 16.8957 12.5228 18.3953 12.1389ZM21.855 17.7584H25.0792V31.5083C25.0792 31.9317 24.8451 32.3022 24.4978 32.5006C24.8451 32.3022 25.0793 31.9317 25.0793 31.5083V17.7584H21.855C21.855 17.7584 21.855 17.7584 21.855 17.7584ZM14.3371 7.48113C14.4287 7.45811 14.5247 7.44587 14.6235 7.44587H23.9175C24.5579 7.44587 25.0792 7.96004 25.0792 8.59168V13.175H25.0793V8.59167C25.0793 7.96003 24.558 7.44586 23.9176 7.44586H14.6236C14.5247 7.44586 14.4288 7.4581 14.3371 7.48113ZM31.7497 16.3125H21.5809C21.3065 16.3125 21.0468 16.4391 20.8793 16.6578C20.4884 17.1682 19.9026 17.4584 19.2705 17.4584C18.1508 17.4584 17.247 16.561 17.247 15.4667C17.247 14.3723 18.1508 13.475 19.2705 13.475C19.9026 13.475 20.4883 13.7651 20.8793 14.2755C21.0467 14.4942 21.3065 14.6209 21.5809 14.6209H31.7497V16.3125ZM21.3552 16.6575C21.2624 16.6961 21.18 16.7585 21.1175 16.8402C20.8381 17.205 20.4703 17.4724 20.0564 17.6217C20.4704 17.4724 20.8382 17.205 21.1176 16.8402C21.1801 16.7585 21.2624 16.6961 21.3552 16.6575ZM32.0497 16.6125L32.0498 16.6125V14.3209H21.581C21.3989 14.3209 21.2276 14.2369 21.1176 14.0931C20.6705 13.5096 19.9972 13.175 19.2705 13.175C19.0716 13.175 18.8783 13.1998 18.6939 13.2464C18.8783 13.1998 19.0715 13.175 19.2705 13.175C19.9972 13.175 20.6705 13.5096 21.1175 14.0931C21.2276 14.2369 21.3989 14.3209 21.5809 14.3209H32.0497V16.6125ZM22.2343 25.3824C22.2148 25.3843 22.195 25.3853 22.1749 25.3853H16.3662C16.0451 25.3853 15.7853 25.1291 15.7853 24.8124C15.7853 24.599 15.9033 24.413 16.0785 24.3144C15.9033 24.413 15.7852 24.599 15.7852 24.8124C15.7852 25.1291 16.0451 25.3853 16.3661 25.3853H22.1749C22.195 25.3853 22.2148 25.3843 22.2343 25.3824ZM32.69 17.7554C32.6705 17.7573 32.6507 17.7583 32.6306 17.7583H26.241V17.7583H32.6306C32.6506 17.7583 32.6705 17.7573 32.69 17.7554ZM24.1548 33.7881C24.0768 33.796 23.9976 33.8 23.9176 33.8H14.6236C13.3421 33.8 12.3 32.7722 12.3 31.5084V8.59167C12.3 7.52154 13.047 6.62071 14.0539 6.36962C13.047 6.62069 12.3 7.52154 12.3 8.59168V31.5084C12.3 32.7722 13.342 33.8 14.6235 33.8H23.9175C23.9976 33.8 24.0768 33.796 24.1548 33.7881Z" fill="white"/>
</svg>
