<svg width="40" height="40" viewBox="0 0 40 40" fill="none" xmlns="http://www.w3.org/2000/svg">
<path d="M25.4277 8H14.6855C13.2047 8 12 9.20474 12 10.6855V30.3145C12 31.7953 13.2047 33 14.6855 33H25.4277C26.9085 33 28.1133 31.7953 28.1133 30.3145V10.6855C28.1133 9.20474 26.9085 8 25.4277 8ZM26.6484 30.3145C26.6484 30.9875 26.1008 31.5352 25.4277 31.5352H14.6855C14.0125 31.5352 13.4648 30.9875 13.4648 30.3145V30.0703H26.6484V30.3145ZM26.6484 28.6055H13.4648V10.6855C13.4648 10.0125 14.0125 9.46484 14.6855 9.46484H25.4277C26.1008 9.46484 26.6484 10.0125 26.6484 10.6855V28.6055Z" fill="white"/>
<path d="M19.0801 12.3945H21.0332C21.4377 12.3945 21.7656 12.0666 21.7656 11.6621C21.7656 11.2576 21.4377 10.9297 21.0332 10.9297H19.0801C18.6756 10.9297 18.3477 11.2576 18.3477 11.6621C18.3477 12.0666 18.6756 12.3945 19.0801 12.3945Z" fill="white"/>
<path d="M23.4746 25.1875H16.6387C16.2342 25.1875 15.9062 25.5154 15.9062 25.9199C15.9062 26.3244 16.2342 26.6523 16.6387 26.6523H23.4746C23.8791 26.6523 24.207 26.3244 24.207 25.9199C24.207 25.5154 23.8791 25.1875 23.4746 25.1875Z" fill="white"/>
</svg>
