<svg width="40" height="40" viewBox="0 0 40 40" fill="none" xmlns="http://www.w3.org/2000/svg">
<path d="M33.0234 23.4551C33.5628 23.4551 34 23.0179 34 22.4785V18.1328C34 17.7805 33.8103 17.4555 33.5035 17.2824C33.1966 17.1092 32.8204 17.1146 32.5188 17.2967L28.58 19.6742C28.5726 18.2964 27.8476 17.086 26.7611 16.3961C27.8758 15.4112 28.5801 13.972 28.5801 12.3711C28.5801 9.40947 26.1706 7 23.209 7C20.2558 7 17.8519 9.39575 17.8382 12.3458C17.4096 10.3265 15.6129 8.80664 13.4678 8.80664C11.0042 8.80664 9 10.8109 9 13.2744C9 14.6029 9.58301 15.7975 10.5063 16.6166C9.59053 17.3321 9 18.4457 9 19.6953V28.0938C9 30.2477 10.7523 32 12.9062 32H24.6738C26.8277 32 28.5801 30.2477 28.5801 28.0938V28.0527L32.5243 30.3979C32.8262 30.5774 33.2011 30.581 33.5063 30.4074C33.8115 30.2338 34 29.9097 34 29.5586V27.3613C34 26.822 33.5628 26.3848 33.0234 26.3848C32.4841 26.3848 32.0469 26.822 32.0469 27.3613V27.8418L28.1026 25.4966C27.8008 25.317 27.4259 25.3136 27.1207 25.4871C26.8155 25.6607 26.627 25.9848 26.627 26.3359V28.0938C26.627 29.1707 25.7508 30.0469 24.6738 30.0469H12.9062C11.8293 30.0469 10.9531 29.1707 10.9531 28.0938V19.6953C10.9531 18.6184 11.8293 17.7422 12.9062 17.7422H24.6738C25.7508 17.7422 26.627 18.6184 26.627 19.6953V21.4043C26.627 21.7566 26.8167 22.0815 27.1235 22.2547C27.4303 22.4279 27.8065 22.4225 28.1082 22.2403L32.0469 19.8629V22.4785C32.0469 23.0179 32.4841 23.4551 33.0234 23.4551ZM13.4678 15.7891C12.0812 15.7891 10.9531 14.661 10.9531 13.2744C10.9531 11.8878 12.0812 10.7598 13.4678 10.7598C14.8543 10.7598 15.9824 11.8878 15.9824 13.2744C15.9824 14.661 14.8543 15.7891 13.4678 15.7891ZM17.1587 15.7891C17.6293 15.1005 17.9125 14.2743 17.9341 13.3842C18.1069 14.2856 18.5054 15.1078 19.0688 15.7891H17.1587ZM23.209 15.7891C21.3243 15.7891 19.791 14.2558 19.791 12.3711C19.791 10.4864 21.3243 8.95312 23.209 8.95312C25.0937 8.95312 26.627 10.4864 26.627 12.3711C26.627 14.2558 25.0937 15.7891 23.209 15.7891Z" fill="white"/>
</svg>
