<svg width="40" height="40" viewBox="0 0 40 40" fill="none" xmlns="http://www.w3.org/2000/svg">
<path d="M31.2969 19.7969H30.4531V17.5C30.4531 17.3725 30.4185 17.2475 30.3529 17.1382L29.1763 15.1772C29.5044 14.7925 29.7031 14.2941 29.7031 13.75C29.7031 12.5352 28.7148 11.5469 27.5 11.5469C26.2852 11.5469 25.2969 12.5352 25.2969 13.75C25.2969 15.1504 26.5944 16.2031 27.9711 15.9019L29.0469 17.6948V19.7969H24.4531V17.5C24.4531 15.713 23.6372 13.8625 22.1441 12.9177C22.8675 12.3067 23.3281 11.3938 23.3281 10.375C23.3281 8.52892 21.8331 7 20 7C18.1687 7 16.6719 8.52728 16.6719 10.375C16.6719 11.3938 17.1325 12.3067 17.8559 12.9177C16.3625 13.8627 15.5469 15.7136 15.5469 17.5V19.7969H10.9531V17.6948L12.0289 15.9018C13.4075 16.2035 14.7031 15.148 14.7031 13.75C14.7031 12.5352 13.7148 11.5469 12.5 11.5469C11.2852 11.5469 10.2969 12.5352 10.2969 13.75C10.2969 14.2941 10.4956 14.7925 10.8237 15.1772L9.64709 17.1382C9.58152 17.2475 9.54688 17.3725 9.54688 17.5V19.7969H8.70312C8.31481 19.7969 8 20.1117 8 20.5V24.25C8 24.6383 8.31481 24.9531 8.70312 24.9531H11.0469V30.2969C11.0469 30.6852 11.3617 31 11.75 31C12.1383 31 12.4531 30.6852 12.4531 30.2969V24.9531H27.5469V30.2969C27.5469 30.6852 27.8617 31 28.25 31C28.6383 31 28.9531 30.6852 28.9531 30.2969V24.9531H31.2969C31.6852 24.9531 32 24.6383 32 24.25V20.5C32 20.1117 31.6852 19.7969 31.2969 19.7969ZM26.7031 13.75C26.7031 13.3106 27.0606 12.9531 27.5 12.9531C27.9394 12.9531 28.2969 13.3106 28.2969 13.75C28.2969 14.1894 27.9394 14.5469 27.5 14.5469C27.0606 14.5469 26.7031 14.1894 26.7031 13.75ZM12.5 12.9531C12.9394 12.9531 13.2969 13.3106 13.2969 13.75C13.2969 14.1894 12.9394 14.5469 12.5 14.5469C12.0606 14.5469 11.7031 14.1894 11.7031 13.75C11.7031 13.3106 12.0606 12.9531 12.5 12.9531ZM18.0781 10.375C18.0781 9.3078 18.9582 8.40625 20 8.40625C21.0418 8.40625 21.9219 9.3078 21.9219 10.375C21.9219 11.4347 21.0597 12.2969 20 12.2969C18.9403 12.2969 18.0781 11.4347 18.0781 10.375ZM16.9531 17.5C16.9531 15.6336 18.0928 13.7031 20 13.7031C21.9072 13.7031 23.0469 15.6336 23.0469 17.5V19.7969H16.9531V17.5ZM30.5938 23.5469H9.40625V21.2031H30.5938V23.5469Z" fill="white"/>
<path d="M23 27.2969H17C16.6117 27.2969 16.2969 27.6117 16.2969 28C16.2969 28.3883 16.6117 28.7031 17 28.7031H23C23.3883 28.7031 23.7031 28.3883 23.7031 28C23.7031 27.6117 23.3883 27.2969 23 27.2969Z" fill="white"/>
</svg>
