<svg width="40" height="40" viewBox="0 0 40 40" fill="none" xmlns="http://www.w3.org/2000/svg">
<path fill-rule="evenodd" clip-rule="evenodd" d="M25.7432 18.2324C25.849 18.2325 25.9542 18.2537 26.0518 18.2949C26.1492 18.3361 26.2377 18.3968 26.3115 18.4727C26.3853 18.5485 26.4429 18.6388 26.4814 18.7373C26.5194 18.8347 26.5384 18.9385 26.5361 19.043V20.1768C26.5362 20.2103 26.5462 20.243 26.5654 20.2705C26.5845 20.2976 26.6116 20.3186 26.6426 20.3301C27.0151 20.4596 27.3557 20.6705 27.6377 20.9463C27.9195 21.222 28.1376 21.5564 28.2754 21.9258C28.4132 22.2953 28.4671 22.691 28.4346 23.084C28.402 23.477 28.2835 23.8584 28.0869 24.2002C28.0661 24.2368 28.0601 24.2804 28.0703 24.3213C28.0806 24.362 28.1061 24.3974 28.1416 24.4199C28.6357 24.7333 29.0153 25.1989 29.2227 25.7461C29.43 26.2934 29.4545 26.8938 29.292 27.4561C29.1295 28.018 28.7893 28.512 28.3223 28.8643C27.9134 29.1725 27.4263 29.3579 26.9189 29.4004L26.7002 29.4102C26.6567 29.4102 26.6148 29.4272 26.584 29.458C26.5533 29.4888 26.5361 29.5307 26.5361 29.5742V30.5312L26.5312 30.6094C26.5125 30.7905 26.4318 30.9602 26.3018 31.0898C26.1533 31.2378 25.9527 31.3209 25.7432 31.3213C25.5331 31.3209 25.3311 31.2374 25.1826 31.0889C25.0341 30.9402 24.9503 30.7385 24.9502 30.5283V29.5713C24.9502 29.5498 24.9457 29.5286 24.9375 29.5088C24.9293 29.4889 24.9175 29.4703 24.9023 29.4551C24.8871 29.4399 24.8685 29.4282 24.8486 29.4199C24.8288 29.4117 24.8076 29.4073 24.7861 29.4072H23.8281C23.8067 29.4072 23.7854 29.4117 23.7656 29.4199C23.7457 29.4282 23.7272 29.4399 23.7119 29.4551C23.6967 29.4703 23.685 29.4889 23.6768 29.5088C23.6686 29.5286 23.6641 29.5498 23.6641 29.5713V30.5244C23.6669 30.6303 23.6489 30.7363 23.6104 30.835C23.5718 30.9336 23.5133 31.0237 23.4395 31.0996C23.3656 31.1754 23.2772 31.2352 23.1797 31.2764C23.0821 31.3176 22.9771 31.3389 22.8711 31.3389C22.7652 31.3388 22.66 31.3175 22.5625 31.2764C22.4651 31.2352 22.3765 31.1754 22.3027 31.0996C22.2289 31.0238 22.1714 30.9335 22.1328 30.835C22.0943 30.7363 22.0753 30.6303 22.0781 30.5244V29.5713C22.0781 29.5278 22.061 29.4858 22.0303 29.4551C21.9995 29.4244 21.9575 29.4072 21.9141 29.4072H20.957C20.7467 29.4072 20.5452 29.3235 20.3965 29.1748C20.2478 29.0261 20.1641 28.8246 20.1641 28.6143C20.1641 28.404 20.2478 28.2024 20.3965 28.0537C20.5452 27.905 20.7467 27.8213 20.957 27.8213H21.9141C21.9356 27.8213 21.9576 27.8168 21.9775 27.8086C21.9972 27.8004 22.0152 27.7885 22.0303 27.7734C22.0455 27.7582 22.0582 27.7396 22.0664 27.7197C22.0746 27.6999 22.0781 27.6786 22.0781 27.6572V21.9141C22.078 21.8707 22.0609 21.8295 22.0303 21.7988C21.9995 21.7681 21.9576 21.75 21.9141 21.75H20.957C20.7467 21.75 20.5452 21.6663 20.3965 21.5176C20.2478 21.3689 20.1641 21.1673 20.1641 20.957C20.1641 20.7467 20.2478 20.5452 20.3965 20.3965C20.5452 20.2478 20.7467 20.1641 20.957 20.1641H21.9141C21.9575 20.1641 21.9995 20.1469 22.0303 20.1162C22.061 20.0854 22.0781 20.0435 22.0781 20V19.043C22.0758 18.9385 22.0948 18.8347 22.1328 18.7373C22.1713 18.6388 22.229 18.5485 22.3027 18.4727C22.3765 18.3968 22.465 18.3361 22.5625 18.2949C22.66 18.2537 22.7652 18.2325 22.8711 18.2324C22.977 18.2324 23.0821 18.2537 23.1797 18.2949C23.2773 18.3361 23.3655 18.3967 23.4395 18.4727C23.5133 18.5486 23.5718 18.6387 23.6104 18.7373C23.6483 18.8346 23.6664 18.9385 23.6641 19.043V20C23.6641 20.0215 23.6686 20.0427 23.6768 20.0625C23.685 20.0823 23.6967 20.101 23.7119 20.1162C23.7271 20.1314 23.7457 20.1431 23.7656 20.1514C23.7854 20.1595 23.8067 20.164 23.8281 20.1641H24.7861C24.8075 20.164 24.8288 20.1595 24.8486 20.1514C24.8685 20.1431 24.8871 20.1314 24.9023 20.1162C24.9175 20.101 24.9293 20.0823 24.9375 20.0625C24.9457 20.0427 24.9502 20.0215 24.9502 20V19.043C24.9479 18.9385 24.9659 18.8346 25.0039 18.7373C25.0424 18.6386 25.1009 18.5486 25.1748 18.4727C25.2487 18.3967 25.337 18.3361 25.4346 18.2949C25.5322 18.2537 25.6372 18.2324 25.7432 18.2324ZM23.7656 25.5908C23.7457 25.5991 23.7272 25.6117 23.7119 25.627C23.6969 25.6421 23.6849 25.66 23.6768 25.6797C23.6686 25.6995 23.6641 25.7208 23.6641 25.7422V27.6572C23.6641 27.6787 23.6686 27.6999 23.6768 27.7197C23.685 27.7396 23.6967 27.7582 23.7119 27.7734C23.7272 27.7887 23.7457 27.8004 23.7656 27.8086C23.7854 27.8168 23.8067 27.8213 23.8281 27.8213H26.7002C27.0795 27.8212 27.3528 27.6791 27.5332 27.4746C27.7161 27.2672 27.8116 26.9863 27.8115 26.7002C27.8114 26.414 27.7163 26.1323 27.5332 25.9248C27.3527 25.7202 27.079 25.5782 26.7002 25.5781H23.8281C23.8067 25.5781 23.7854 25.5826 23.7656 25.5908ZM23.7656 21.7627C23.7457 21.7709 23.7272 21.7826 23.7119 21.7979C23.6967 21.8131 23.685 21.8316 23.6768 21.8516C23.6685 21.8714 23.6641 21.8926 23.6641 21.9141V23.8291C23.6641 23.8506 23.6685 23.8718 23.6768 23.8916C23.685 23.9115 23.6967 23.9301 23.7119 23.9453C23.7272 23.9605 23.7457 23.9722 23.7656 23.9805C23.7854 23.9886 23.8067 23.9931 23.8281 23.9932H25.7422C26.1217 23.9932 26.3958 23.851 26.5762 23.6465C26.759 23.4391 26.8536 23.1581 26.8535 22.8721C26.8534 22.586 26.7591 22.3042 26.5762 22.0967C26.3956 21.892 26.1212 21.75 25.7422 21.75H23.8281C23.8067 21.75 23.7854 21.7545 23.7656 21.7627Z" fill="white"/>
<path fill-rule="evenodd" clip-rule="evenodd" d="M22.7637 14.6201C24.7741 14.2203 26.8581 14.4255 28.752 15.21C30.6458 15.9944 32.2645 17.323 33.4033 19.0273C34.5421 20.7317 35.1503 22.7354 35.1504 24.7852C35.1474 27.533 34.0544 30.1683 32.1113 32.1113C30.1683 34.0544 27.533 35.1474 24.7852 35.1504C22.7354 35.1503 20.7317 34.5421 19.0273 33.4033C17.323 32.2645 15.9944 30.6458 15.21 28.752C14.4255 26.8581 14.2203 24.7741 14.6201 22.7637C15.02 20.7531 16.0075 18.9065 17.457 17.457C18.9065 16.0075 20.7531 15.02 22.7637 14.6201ZM24.7852 16.0068C23.049 16.0069 21.3517 16.5218 19.9082 17.4863C18.4645 18.451 17.3392 19.8226 16.6748 21.4268C16.0104 23.0308 15.837 24.7962 16.1758 26.499C16.5146 28.2017 17.3505 29.7656 18.5781 30.9932C19.8059 32.2209 21.3703 33.0578 23.0732 33.3965C24.7761 33.7351 26.5415 33.561 28.1455 32.8965C29.7495 32.232 31.1204 31.1067 32.085 29.6631C33.0495 28.2194 33.5645 26.5214 33.5645 24.7852C33.5616 22.4579 32.6359 20.2266 30.9902 18.5811C29.3444 16.9353 27.1126 16.0094 24.7852 16.0068Z" fill="white"/>
<path fill-rule="evenodd" clip-rule="evenodd" d="M13.2998 4.84961C15.6436 4.84961 17.7426 5.29113 19.2607 6.02148C20.7698 6.74746 21.75 7.78474 21.75 8.99316V13.2998C21.75 13.5102 21.6663 13.7126 21.5176 13.8613C21.3689 14.0098 21.1672 14.0938 20.957 14.0938C20.7468 14.0937 20.5452 14.0099 20.3965 13.8613C20.2477 13.7126 20.1641 13.5102 20.1641 13.2998V11.7627L20.1582 11.7197C20.1544 11.7058 20.149 11.6923 20.1416 11.6797C20.1269 11.6545 20.1055 11.6334 20.0801 11.6191C20.0547 11.605 20.0261 11.5981 19.9971 11.5986C19.9679 11.5992 19.9389 11.6068 19.9141 11.6221C18.2554 12.6369 15.7695 13.1367 13.2998 13.1367C10.8301 13.1367 8.34402 12.6369 6.68555 11.6221C6.66071 11.607 6.63258 11.5992 6.60352 11.5986C6.57436 11.5981 6.54498 11.6049 6.51953 11.6191C6.49422 11.6333 6.47374 11.6547 6.45898 11.6797C6.4442 11.7048 6.43564 11.7335 6.43555 11.7627V13.2998C6.43555 13.4152 6.48888 13.5473 6.61621 13.6934C6.74358 13.8394 6.93716 13.9901 7.19434 14.1387C7.70827 14.4355 8.45273 14.7104 9.35938 14.9258C11.1714 15.3562 13.6026 15.5422 16.0645 15.209C16.272 15.1822 16.4832 15.238 16.6494 15.3652C16.8155 15.4924 16.9249 15.6804 16.9531 15.8877C16.9813 16.0951 16.926 16.3057 16.7998 16.4727C16.6736 16.6396 16.4865 16.7497 16.2793 16.7793C14.795 16.9808 13.0272 17.0267 11.3174 16.8555C9.60937 16.6844 7.94636 16.296 6.67676 15.624C6.6518 15.6109 6.62388 15.6047 6.5957 15.6055C6.56744 15.6063 6.53986 15.6143 6.51562 15.6289C6.49143 15.6435 6.47097 15.6639 6.45703 15.6885C6.4431 15.7131 6.43559 15.7412 6.43555 15.7695V17.1289C6.43555 17.2819 6.55937 17.4958 6.88184 17.7412C7.19588 17.9802 7.66682 18.2237 8.28125 18.4424C9.5086 18.8791 11.2848 19.207 13.4609 19.207C13.6713 19.207 13.8737 19.2907 14.0225 19.4395C14.1711 19.5881 14.2548 19.7898 14.2549 20C14.2549 20.2103 14.1712 20.4128 14.0225 20.5615C13.8737 20.7103 13.6713 20.7939 13.4609 20.7939C10.9738 20.7939 8.58839 20.3574 6.98633 19.6074L6.67676 19.4531C6.65185 19.4399 6.62389 19.4339 6.5957 19.4346C6.56745 19.4353 6.53985 19.4435 6.51562 19.458C6.49137 19.4726 6.47096 19.4929 6.45703 19.5176C6.44313 19.5422 6.43554 19.5704 6.43555 19.5986V20.958C6.43572 21.0823 6.52846 21.2647 6.7832 21.4824C7.03201 21.6951 7.41075 21.9195 7.91797 22.1299C8.93135 22.5502 10.4369 22.9054 12.3848 23.0078C12.5947 23.0189 12.792 23.1133 12.9326 23.2695C13.0732 23.4258 13.1458 23.6319 13.1348 23.8418C13.1237 24.0517 13.0293 24.249 12.873 24.3896C12.7169 24.53 12.5114 24.6027 12.3018 24.5918C10.3605 24.5435 8.44874 24.1006 6.68359 23.291L6.67676 23.2881C6.65178 23.275 6.62391 23.2687 6.5957 23.2695C6.56746 23.2704 6.53983 23.2784 6.51562 23.293C6.4914 23.3076 6.47096 23.3279 6.45703 23.3525C6.4431 23.3772 6.43559 23.4053 6.43555 23.4336V24.7852C6.43555 24.9096 6.52822 25.0925 6.7832 25.3105C7.03199 25.5232 7.4108 25.7475 7.91797 25.958C8.93137 26.3786 10.4369 26.735 12.3848 26.8389C12.5947 26.8499 12.792 26.9443 12.9326 27.1006C13.073 27.2567 13.1457 27.4622 13.1348 27.6719C13.1237 27.8819 13.0293 28.0791 12.873 28.2197C12.7178 28.3594 12.5141 28.4317 12.3057 28.4219C10.363 28.3736 8.44979 27.9316 6.68359 27.1211L6.67676 27.1172C6.65179 27.1041 6.62389 27.0978 6.5957 27.0986C6.56748 27.0995 6.53982 27.1075 6.51562 27.1221C6.49143 27.1367 6.47096 27.1571 6.45703 27.1816C6.4431 27.2063 6.43559 27.2344 6.43555 27.2627V28.6143C6.43555 28.7671 6.5594 28.9812 6.88184 29.2266C7.19589 29.4656 7.66678 29.71 8.28125 29.9287C9.50859 30.3655 11.285 30.6933 13.4609 30.6934H13.4668C13.6716 30.7012 13.8656 30.788 14.0078 30.9355C14.15 31.0832 14.2304 31.2804 14.2305 31.4854C14.2305 31.6905 14.1501 31.8884 14.0078 32.0361C13.8656 32.1837 13.6716 32.2705 13.4668 32.2783H13.4609C11.3979 32.2783 9.26418 31.9691 7.64062 31.3682C6.82914 31.0678 6.13602 30.691 5.64355 30.2363C5.14938 29.7801 4.84962 29.2379 4.84961 28.6143V8.99316C4.84961 7.78473 5.83075 6.74746 7.33984 6.02148C8.85794 5.29122 10.9562 4.84965 13.2998 4.84961ZM13.2998 6.43555C11.249 6.43559 9.51587 6.79023 8.30078 7.29785C7.69273 7.55188 7.2208 7.84198 6.90332 8.13965C6.58424 8.43886 6.43555 8.73122 6.43555 8.99316C6.43568 9.25505 6.5843 9.54756 6.90332 9.84668C7.22078 10.1443 7.69293 10.4335 8.30078 10.6875C9.51587 11.1951 11.249 11.5498 13.2998 11.5498C15.3508 11.5498 17.0848 11.1961 18.2998 10.6885C18.9077 10.4345 19.3799 10.1443 19.6973 9.84668C20.0161 9.54763 20.1639 9.25513 20.1641 8.99316C20.1641 8.73107 20.0163 8.4379 19.6973 8.13867C19.3799 7.84107 18.9076 7.5518 18.2998 7.29785C17.0848 6.79026 15.3508 6.43555 13.2998 6.43555Z" fill="white"/>
</svg>
