<svg width="40" height="40" viewBox="0 0 40 40" fill="none" xmlns="http://www.w3.org/2000/svg">
<path d="M29.8984 20.1584H27.1576C26.7846 20.1584 26.4234 20.2089 26.0797 20.3017C25.4017 18.9813 24.0175 18.0741 22.4224 18.0741H17.5776C15.9825 18.0741 14.5983 18.9813 13.9203 20.3017C13.5766 20.2089 13.2154 20.1584 12.8424 20.1584H10.1016C7.83996 20.1584 6 21.9811 6 24.2216V28.5621C6 29.9063 7.10398 31 8.46094 31H31.5391C32.896 31 34 29.9063 34 28.5621V24.2216C34 21.9811 32.16 20.1584 29.8984 20.1584ZM13.4761 22.1374V29.3748H8.46094C8.00862 29.3748 7.64062 29.0102 7.64062 28.5621V24.2216C7.64062 22.8774 8.7446 21.7837 10.1016 21.7837H12.8424C13.0651 21.7837 13.2807 21.8137 13.486 21.8689C13.4801 21.9578 13.4761 22.0472 13.4761 22.1374ZM24.8833 29.3748H15.1167V22.1374C15.1167 20.7931 16.2207 19.6994 17.5776 19.6994H22.4224C23.7793 19.6994 24.8833 20.7931 24.8833 22.1374V29.3748ZM32.3594 28.5621C32.3594 29.0102 31.9914 29.3748 31.5391 29.3748H26.5239V22.1374C26.5239 22.0471 26.5199 21.9577 26.514 21.8688C26.7193 21.8137 26.9349 21.7837 27.1576 21.7837H29.8984C31.2554 21.7837 32.3594 22.8773 32.3594 24.2216V28.5621Z" fill="white"/>
<path d="M11.472 12.4844C9.46232 12.4844 7.82733 14.1041 7.82733 16.0951C7.82727 18.086 9.46232 19.7057 11.472 19.7057C13.4817 19.7057 15.1167 18.086 15.1167 16.0951C15.1167 14.1041 13.4817 12.4844 11.472 12.4844ZM11.472 18.0804C10.3669 18.0804 9.4679 17.1898 9.4679 16.0951C9.4679 15.0003 10.3669 14.1097 11.472 14.1097C12.577 14.1097 13.4761 15.0003 13.4761 16.0951C13.4761 17.1898 12.577 18.0804 11.472 18.0804Z" fill="white"/>
<path d="M20 8C17.3151 8 15.1307 10.1639 15.1307 12.8237C15.1307 15.4836 17.3151 17.6475 20 17.6475C22.6849 17.6475 24.8693 15.4836 24.8693 12.8237C24.8693 10.164 22.6849 8 20 8ZM20 16.0222C18.2197 16.0222 16.7714 14.5874 16.7714 12.8237C16.7714 11.0601 18.2197 9.62528 20 9.62528C21.7803 9.62528 23.2286 11.0601 23.2286 12.8237C23.2286 14.5874 21.7803 16.0222 20 16.0222Z" fill="white"/>
<path d="M28.528 12.4844C26.5183 12.4844 24.8833 14.1041 24.8833 16.0951C24.8833 18.086 26.5183 19.7057 28.528 19.7057C30.5377 19.7057 32.1727 18.086 32.1727 16.0951C32.1727 14.1041 30.5377 12.4844 28.528 12.4844ZM28.528 18.0804C27.423 18.0804 26.5239 17.1898 26.5239 16.0951C26.5239 15.0003 27.423 14.1097 28.528 14.1097C29.633 14.1097 30.532 15.0003 30.532 16.0951C30.532 17.1898 29.633 18.0804 28.528 18.0804Z" fill="white"/>
</svg>
