<svg width="40" height="40" viewBox="0 0 40 40" fill="none" xmlns="http://www.w3.org/2000/svg">
<path d="M32 12.625V18.7188C32 19.2366 31.5803 19.6562 31.0625 19.6562C30.5447 19.6562 30.125 19.2366 30.125 18.7188V12.625C30.125 11.5912 29.2838 10.75 28.25 10.75H27.0312V11.6875C27.0312 12.2053 26.6116 12.625 26.0938 12.625C25.5759 12.625 25.1562 12.2053 25.1562 11.6875V10.75H20.8906V11.6875C20.8906 12.2053 20.4709 12.625 19.9531 12.625C19.4353 12.625 19.0156 12.2053 19.0156 11.6875V10.75H14.7969V11.6875C14.7969 12.2053 14.3772 12.625 13.8594 12.625C13.3416 12.625 12.9219 12.2053 12.9219 11.6875V10.75H11.75C10.7162 10.75 9.875 11.5912 9.875 12.625V27.25C9.875 28.2838 10.7162 29.125 11.75 29.125H15.7812C16.2991 29.125 16.7188 29.5447 16.7188 30.0625C16.7188 30.5803 16.2991 31 15.7812 31H11.75C9.68219 31 8 29.3178 8 27.25V12.625C8 10.5572 9.68219 8.875 11.75 8.875H12.9219V7.9375C12.9219 7.41968 13.3416 7 13.8594 7C14.3772 7 14.7969 7.41968 14.7969 7.9375V8.875H19.0156V7.9375C19.0156 7.41968 19.4353 7 19.9531 7C20.4709 7 20.8906 7.41968 20.8906 7.9375V8.875H25.1562V7.9375C25.1562 7.41968 25.5759 7 26.0938 7C26.6116 7 27.0312 7.41968 27.0312 7.9375V8.875H28.25C30.3178 8.875 32 10.5572 32 12.625ZM29.6562 21.5312H26.5625C26.0447 21.5312 25.625 21.9509 25.625 22.4688C25.625 22.9866 26.0447 23.4062 26.5625 23.4062H28.9031L25.593 26.7082C25.4901 26.8109 25.3256 26.8144 25.2185 26.7164L24.7401 26.2788C24.3235 25.8976 23.783 25.6985 23.2192 25.7172C22.6548 25.7363 22.1293 25.9716 21.738 26.3813L18.8519 29.4165C18.4951 29.7917 18.5101 30.3851 18.8853 30.7418C19.0667 30.9145 19.2991 31 19.5311 31C19.779 31 20.0264 30.9022 20.2106 30.7085L23.0954 27.6748C23.1963 27.569 23.3664 27.5633 23.4744 27.6622L23.9527 28.0998C24.801 28.8758 26.1031 28.8478 26.9172 28.0357L30.125 24.8358V27.1094C30.125 27.6272 30.5447 28.0469 31.0625 28.0469C31.5803 28.0469 32 27.6272 32 27.1094V23.875C32 22.5826 30.9486 21.5312 29.6562 21.5312Z" fill="white"/>
<circle cx="15.5" cy="16.5" r="1.5" fill="white"/>
<circle cx="15.5" cy="23.5" r="1.5" fill="white"/>
<circle cx="22.5" cy="16.5" r="1.5" fill="white"/>
</svg>
