<svg width="40" height="40" viewBox="0 0 40 40" fill="none" xmlns="http://www.w3.org/2000/svg">
<path d="M21.7713 8C16.6826 8 12.5426 12.1165 12.5426 17.1764C12.5426 18.8983 13.0126 20.5436 13.9094 21.9857L7.68022 24.4374L9.42915 26.0281L7 28.643L10.547 32L13.0025 29.3567L14.8279 30.9664L17.0788 25.0803C18.4955 25.9153 20.1005 26.3528 21.7712 26.3528C26.86 26.3528 31 22.2363 31 17.1764C31 12.1165 26.86 8 21.7713 8ZM14.2337 28.5618L12.904 27.3892L10.4822 29.9962L8.9853 28.5795L11.4334 25.9442L10.3047 24.9176L16.5703 22.4516L14.2337 28.5618ZM21.7713 24.9458C20.2741 24.9458 18.8397 24.5308 17.5908 23.7415L18.7324 20.7561C19.5399 21.3978 20.6196 21.7747 21.8965 21.7747C22.719 21.7747 23.6198 21.5995 24.2074 21.3073L23.845 20.2655C23.2086 20.5674 22.533 20.6939 21.8965 20.6939C19.8109 20.6939 18.4303 19.2725 18.4303 17.2863C18.4303 15.339 19.8402 13.8981 21.9357 13.8981C24.031 13.8981 25.4313 15.2027 25.4313 17.0721C25.4313 18.182 25.1767 18.5812 24.8144 18.5812C24.5794 18.5812 24.3835 18.4352 24.3835 17.997V15.0275H22.7875V15.5046C22.4644 15.1444 22.0139 14.9496 21.4264 14.9496C20.2514 14.9496 19.2527 15.9038 19.2527 17.3837C19.2527 18.8636 20.271 19.8275 21.4264 19.8275C22.1902 19.8275 22.7091 19.5159 23.0126 18.9804C23.2476 19.5354 23.7568 19.8275 24.452 19.8275C25.6858 19.8275 26.6062 18.8441 26.6062 17.0429C26.6062 14.6576 24.7165 12.8174 21.9356 12.8174C19.0177 12.8174 17.1279 14.7549 17.1279 17.2863C17.1279 18.4607 17.5236 19.5018 18.2304 20.285L15.2499 21.458C14.4029 20.1883 13.9575 18.7189 13.9575 17.1764C13.9575 12.8923 17.4627 9.40695 21.7712 9.40695C26.0798 9.40695 29.585 12.8923 29.585 17.1764C29.585 21.4605 26.0798 24.9458 21.7713 24.9458ZM22.8169 17.3837C22.8169 18.1139 22.4057 18.5034 21.8475 18.5034C21.2894 18.5034 20.888 18.1042 20.888 17.3837C20.888 16.673 21.2894 16.2738 21.8475 16.2738C22.4057 16.2738 22.8169 16.6633 22.8169 17.3837Z" fill="white"/>
</svg>
