<svg width="40" height="40" viewBox="0 0 40 40" fill="none" xmlns="http://www.w3.org/2000/svg">
<path d="M14.9065 13.5L11.712 23.7596C11.693 23.8166 11.6875 23.8774 11.6958 23.9371C11.7041 23.9967 11.7261 24.0535 11.7599 24.1027C11.7936 24.1519 11.8383 24.1922 11.8901 24.2202C11.942 24.2482 11.9995 24.2631 12.0581 24.2638H12.9525C13.0324 24.2635 13.11 24.2367 13.1738 24.1873C13.2376 24.1379 13.2842 24.0686 13.3066 23.9898L13.8071 22.3456H18.181L18.1197 22.2442L18.6681 23.9898C18.6905 24.0686 18.7371 24.1379 18.8009 24.1873C18.8647 24.2367 18.9424 24.2635 19.0222 24.2638H19.9167C19.9753 24.2641 20.0331 24.2502 20.0854 24.223C20.1377 24.1959 20.183 24.1563 20.2176 24.1076C20.2522 24.0589 20.275 24.0025 20.2843 23.9429C20.2935 23.8834 20.2889 23.8224 20.2707 23.765L17.0762 13.5054C17.0534 13.4268 17.0067 13.3577 16.943 13.3084C16.8793 13.2591 16.8018 13.2321 16.7221 13.2314H15.2526C15.1748 13.233 15.0995 13.2599 15.0374 13.3081C14.9753 13.3563 14.9295 13.4234 14.9065 13.5ZM14.3395 20.7014L15.9874 15.4209L17.6485 20.7014H14.3395Z" fill="white"/>
<path d="M23.9312 13.2341H23.0793C22.8734 13.2341 22.7066 13.4059 22.7066 13.6178V23.8774C22.7066 24.0893 22.8734 24.261 23.0793 24.261H23.9312C24.137 24.261 24.3039 24.0893 24.3039 23.8774V13.6178C24.3039 13.4059 24.137 13.2341 23.9312 13.2341Z" fill="white"/>
<path d="M19.5812 28.3742H11.8344C11.2583 28.3742 10.7058 28.1386 10.2984 27.7193C9.891 27.2999 9.66213 26.7312 9.66213 26.1381V11.9764C9.66213 11.3833 9.891 10.8146 10.2984 10.3952C10.7058 9.97587 11.2583 9.74029 11.8344 9.74029H25.5923C26.1685 9.74029 26.721 9.97587 27.1284 10.3952C27.5358 10.8146 27.7646 11.3833 27.7646 11.9764V19.0572C27.7695 19.2067 27.8315 19.3482 27.9372 19.4508C28.0429 19.5535 28.1837 19.609 28.329 19.6053C28.7823 19.6039 29.2298 19.7108 29.6361 19.9177C29.7205 19.9622 29.8146 19.9835 29.9093 19.9794C30.004 19.9754 30.0961 19.9461 30.1765 19.8945C30.257 19.8429 30.3231 19.7707 30.3683 19.6849C30.4136 19.5992 30.4365 19.5028 30.4348 19.4053V11.9764C30.4348 11.3222 30.3094 10.6744 30.066 10.0701C29.8225 9.4658 29.4657 8.91684 29.016 8.45464C28.5662 7.99243 28.0323 7.62605 27.4448 7.37645C26.8574 7.12685 26.2279 6.99893 25.5923 7.00001H11.8344C10.5523 7.00001 9.3226 7.5243 8.41597 8.45755C7.50934 9.39079 7 10.6565 7 11.9764V26.1381C7 27.4579 7.50934 28.7237 8.41597 29.6569C9.3226 30.5902 10.5523 31.1145 11.8344 31.1145H20.6993C20.8083 31.1146 20.9148 31.0815 21.0055 31.0194C21.0961 30.9572 21.1669 30.8688 21.2087 30.7653C21.2506 30.6618 21.2617 30.5478 21.2407 30.4378C21.2197 30.3278 21.1675 30.2267 21.0907 30.1472C20.6765 29.756 20.3409 29.2849 20.103 28.7606C20.0649 28.649 19.9944 28.5521 19.9011 28.483C19.8078 28.4139 19.6962 28.3759 19.5812 28.3742Z" fill="white"/>
<path d="M31.4197 29.4155L33.8316 28.4372C33.8813 28.417 33.9239 28.3819 33.9539 28.3365C33.9839 28.291 34 28.2373 34 28.1824C34 28.1274 33.9839 28.0737 33.9539 28.0283C33.9239 27.9828 33.8813 27.9477 33.8316 27.9275L31.4197 26.9493C30.9928 26.7755 30.605 26.5134 30.2804 26.1792C29.9557 25.8451 29.7011 25.4459 29.5323 25.0064L28.5819 22.5401C28.5622 22.4892 28.528 22.4454 28.4839 22.4147C28.4398 22.3839 28.3876 22.3675 28.3343 22.3675C28.281 22.3675 28.2289 22.3839 28.1848 22.4147C28.1406 22.4454 28.1065 22.4892 28.0868 22.5401L27.1364 25.0064C26.968 25.4461 26.7135 25.8455 26.3888 26.1798C26.0641 26.514 25.6761 26.7759 25.2489 26.9493L22.853 27.9275C22.8033 27.9477 22.7607 27.9828 22.7307 28.0283C22.7007 28.0737 22.6846 28.1274 22.6846 28.1824C22.6846 28.2373 22.7007 28.291 22.7307 28.3365C22.7607 28.3819 22.8033 28.417 22.853 28.4372L25.2489 29.4155C25.6761 29.5889 26.0641 29.8508 26.3888 30.185C26.7135 30.5192 26.968 30.9186 27.1364 31.3584L28.0868 33.8246C28.1061 33.8761 28.14 33.9204 28.1842 33.9517C28.2284 33.983 28.2807 33.9998 28.3343 34C28.388 33.9998 28.4403 33.983 28.4845 33.9517C28.5286 33.9204 28.5626 33.8761 28.5819 33.8246L29.5323 31.3584C29.7011 30.9189 29.9557 30.5197 30.2804 30.1855C30.605 29.8514 30.9928 29.5893 31.4197 29.4155Z" fill="white"/>
</svg>
